<?xml version="1.0" encoding="UTF-8" standalone="no"?>
<!-- Created with Inkscape (http://www.inkscape.org/) -->

<svg
   width="900mm"
   height="1600mm"
   viewBox="0 0 900 1599.9999"
   version="1.1"
   id="svg5"
   inkscape:export-filename="background.svg"
   inkscape:export-xdpi="96"
   inkscape:export-ydpi="96"
   xmlns:inkscape="http://www.inkscape.org/namespaces/inkscape"
   xmlns:sodipodi="http://sodipodi.sourceforge.net/DTD/sodipodi-0.dtd"
   xmlns="http://www.w3.org/2000/svg"
   xmlns:svg="http://www.w3.org/2000/svg">
  <sodipodi:namedview
     id="namedview7"
     pagecolor="#ffffff"
     bordercolor="#000000"
     borderopacity="0.25"
     inkscape:showpageshadow="2"
     inkscape:pageopacity="0.0"
     inkscape:pagecheckerboard="0"
     inkscape:deskcolor="#d1d1d1"
     inkscape:document-units="mm"
     showgrid="false"
     inkscape:zoom="0.50646226"
     inkscape:cx="-287.28696"
     inkscape:cy="216.20565"
     inkscape:window-width="1920"
     inkscape:window-height="991"
     inkscape:window-x="-9"
     inkscape:window-y="-9"
     inkscape:window-maximized="1"
     inkscape:current-layer="layer1" />
  <defs
     id="defs2">
    <rect
       x="-1127.4285"
       y="-113.53265"
       width="391.44083"
       height="89.838875"
       id="rect30091" />
    <rect
       x="-1127.4285"
       y="-113.53265"
       width="391.44083"
       height="89.838875"
       id="rect30091-1" />
  </defs>
  <g
     inkscape:label="Layer 1"
     inkscape:groupmode="layer"
     id="layer1"
     transform="translate(230.78566,-85.223881)">
    <path
       id="path536-9"
       style="fill:#009e2d;fill-opacity:1;stroke:none;stroke-width:10.5234"
       d="m 232.16001,-94.138502 a 928.82639,933.71855 0 0 0 -928.82729,933.719422 928.82639,933.71855 0 0 0 928.82729,933.70968 464.41318,466.85925 0 0 1 -34.71244,-1.3035 464.41318,466.85925 0 0 1 -34.51101,-3.9082 464.41318,466.85925 0 0 1 -34.12678,-6.4947 464.41318,466.85925 0 0 1 -33.541318,-9.0325 464.41318,466.85925 0 0 1 -32.78295,-11.5322 464.41318,466.85925 0 0 1 -31.83254,-13.964 464.41318,466.85925 0 0 1 -30.69985631,-16.309 464.41318,466.85925 0 0 1 -29.41344369,-18.5766 464.41318,466.85925 0 0 1 -27.944607,-20.7286 464.41318,466.85925 0 0 1 -26.322256,-22.7747 464.41318,466.85925 0 0 1 -24.556039,-24.6853 464.41318,466.85925 0 0 1 -22.65526,-26.461 464.41318,466.85925 0 0 1 -20.62017,-28.0918 464.41318,466.85925 0 0 1 -18.4793,-29.5684 464.41318,466.85925 0 0 1 -16.22344,-30.8614 464.41318,466.85925 0 0 1 -13.8909,-32.0003 464.41318,466.85925 0 0 1 -11.47173,-32.9555 464.41318,466.85925 0 0 1 -8.98529,-33.7277 464.41318,466.85925 0 0 1 -6.46053,-34.297 464.41318,466.85925 0 0 1 -3.8878,-34.6926 464.41318,466.85925 0 0 1 -1.29668,-34.8953 464.41318,466.85925 0 0 1 0.14775,-12.0145 464.41318,466.85925 0 0 1 0.4606,-12.0147 464.41318,466.85925 0 0 1 0.76719,-11.9951 464.41318,466.85925 0 0 1 1.0756,-11.9762 464.41318,466.85925 0 0 1 1.38214,-11.9374 464.41318,466.85925 0 0 1 1.69047,-11.9082 464.41318,466.85925 0 0 1 1.98707,-11.8507 464.41318,466.85925 0 0 1 2.30395,-11.7926 464.41318,466.85925 0 0 1 2.59196,-11.7345 464.41318,466.85925 0 0 1 2.89897,-11.6672 464.41318,466.85925 0 0 1 3.18727,-11.5899 464.41318,466.85925 0 0 1 3.49436,-11.4935 464.41318,466.85925 0 0 1 3.78222,-11.4066 464.41318,466.85925 0 0 1 4.07973,-11.3005 464.41318,466.85925 0 0 1 4.35839,-11.1941 464.41318,466.85925 0 0 1 4.64618,-11.0786 464.41318,466.85925 0 0 1 4.9342,-10.9531 464.41318,466.85925 0 0 1 5.20313,-10.818 464.41318,466.85925 0 0 1 5.48136,-10.6828 464.41318,466.85925 0 0 1 5.7598,-10.538 464.41318,466.85925 0 0 1 6.0191,-10.3837 464.41318,466.85925 0 0 1 6.28775,-10.2292 464.41318,466.85925 0 0 1 6.55661,-10.0557 464.41318,466.85925 0 0 1 6.79655,-9.8913 464.41318,466.85925 0 0 1 7.05571,-9.7083 464.41318,466.85925 0 0 1 7.29572,-9.5151 464.41318,466.85925 0 0 1 7.54544,-9.3319 464.41318,466.85925 0 0 1 7.77573,-9.12922 464.41318,466.85925 0 0 1 8.01589,-8.9262 464.41318,466.85925 0 0 1 8.2364,-8.724 464.41318,466.85925 0 0 1 8.447828,-8.5018 464.41318,466.85925 0 0 1 8.677994,-8.2703 464.41318,466.85925 0 0 1 8.879778,-8.0578 464.41318,466.85925 0 0 1 9.081282,-7.8168 464.41318,466.85925 0 0 1 9.282937,-7.5851 464.41318,466.85925 0 0 1 9.465234,-7.3342 464.41318,466.85925 0 0 1 9.657173,-7.0929 464.41318,466.85925 0 0 1 9.839878,-6.84201 464.41318,466.85925 0 0 1 10.002689,-6.58148 464.41318,466.85925 0 0 1 10.1756897,-6.32098 464.41318,466.85925 0 0 1 10.329268,-6.05064 464.41318,466.85925 0 0 1 10.4829123,-5.79019 464.41318,466.85925 0 0 1 10.626988,-5.51042 464.41318,466.85925 0 0 1 10.761211,-5.24003 464.41318,466.85925 0 0 1 10.89571,-4.95057 464.41318,466.85925 0 0 1 11.0203,-4.67054 464.41318,466.85925 0 0 1 11.13565,-4.39092 464.41318,466.85925 0 0 1 11.24123,-4.0918 464.41318,466.85925 0 0 1 11.34695,-3.80213 464.41318,466.85925 0 0 1 11.442738,-3.5128 464.41318,466.85925 0 0 1 11.51974,-3.20378 464.41318,466.85925 0 0 1 11.60569,-2.91437 464.41318,466.85925 0 0 1 11.67345,-2.61526 464.41318,466.85925 0 0 1 11.73088,-2.30625 464.41318,466.85925 0 0 1 11.79798,-1.99769 464.41318,466.85925 0 0 1 11.83633,-1.6974 464.41318,466.85925 0 0 1 11.87488,-1.38949 464.41318,466.85925 0 0 1 11.91313,-1.08122 464.41318,466.85925 0 0 1 11.9324,-0.77128 464.41318,466.85925 0 0 1 11.95161,-0.4717 464.41318,466.85925 0 0 1 11.96133,-0.14845 A 464.41318,466.85925 0 0 0 696.56724,372.7196 464.41318,466.85925 0 0 0 232.15377,-94.130427 Z M 226.90895,180.71033 A 185.76527,186.7437 0 0 1 412.67265,367.45209 185.76527,186.7437 0 0 1 226.90895,554.19407 185.76527,186.7437 0 0 1 41.145532,367.45209 185.76527,186.7437 0 0 1 226.90895,180.71033 Z m 0,933.70977 a 185.76527,186.7437 0 0 0 -185.763418,186.7515 185.76527,186.7437 0 0 0 185.763418,186.742 185.76527,186.7437 0 0 0 185.7637,-186.742 185.76527,186.7437 0 0 0 -185.7637,-186.7515 z" />
    <ellipse
       style="fill:#00ed43;fill-opacity:1;stroke:none;stroke-width:0;stroke-dasharray:none;stroke-opacity:1"
       id="path30328"
       cx="249.53918"
       cy="407.07513"
       rx="306.05664"
       ry="235.71294" />
    <path
       id="path536-9-2"
       style="fill:#00ed43;fill-opacity:1;stroke:none;stroke-width:10.5234"
       d="m 208.01663,-71.729266 a 928.82639,933.71855 0 0 0 -928.82729,933.719466 928.82639,933.71855 0 0 0 928.82729,933.7096 464.41318,466.85925 0 0 1 -34.71251,-1.3033 464.41318,466.85925 0 0 1 -34.51093,-3.9083 464.41318,466.85925 0 0 1 -34.12665,-6.4948 464.41318,466.85925 0 0 1 -33.541468,-9.0325 464.41318,466.85925 0 0 1 -32.783,-11.5321 464.41318,466.85925 0 0 1 -31.8325483,-13.964 464.41318,466.85925 0 0 1 -30.6997787,-16.309 464.41318,466.85925 0 0 1 -29.41338,-18.5766 464.41318,466.85925 0 0 1 -27.944747,-20.7288 464.41318,466.85925 0 0 1 -26.322118,-22.7745 464.41318,466.85925 0 0 1 -24.55612,-24.6854 464.41318,466.85925 0 0 1 -22.65517,-26.4609 464.41318,466.85925 0 0 1 -20.62011,-28.0918 464.41318,466.85925 0 0 1 -18.47951,-29.5685 464.41318,466.85925 0 0 1 -16.22343,-30.8614 464.41318,466.85925 0 0 1 -13.8907,-32.0001 464.41318,466.85925 0 0 1 -11.4718,-32.9558 464.41318,466.85925 0 0 1 -8.98522,-33.7275 464.41318,466.85925 0 0 1 -6.46054,-34.2972 464.41318,466.85925 0 0 1 -3.88793,-34.6925 464.41318,466.85925 0 0 1 -1.29668,-34.8953 464.41318,466.85925 0 0 1 0.14775,-12.0146 464.41318,466.85925 0 0 1 0.4606,-12.0146 464.41318,466.85925 0 0 1 0.76727,-11.9951 464.41318,466.85925 0 0 1 1.07566,-11.9761 464.41318,466.85925 0 0 1 1.382,-11.9375 464.41318,466.85925 0 0 1 1.68866,-11.9081 464.41318,466.85925 0 0 1 1.98701,-11.8507 464.41318,466.85925 0 0 1 2.30395,-11.7927 464.41318,466.85925 0 0 1 2.59196,-11.7346 464.41318,466.85925 0 0 1 2.89911,-11.6673 464.41318,466.85925 0 0 1 3.1872,-11.5897 464.41318,466.85925 0 0 1 3.49415,-11.4934 464.41318,466.85925 0 0 1 3.78242,-11.4066 464.41318,466.85925 0 0 1 4.07974,-11.3005 464.41318,466.85925 0 0 1 4.35824,-11.1944 464.41318,466.85925 0 0 1 4.6464,-11.0786 464.41318,466.85925 0 0 1 4.93412,-10.9528 464.41318,466.85925 0 0 1 5.20313,-10.818 464.41318,466.85925 0 0 1 5.48137,-10.6828 464.41318,466.85925 0 0 1 5.7598,-10.538 464.41318,466.85925 0 0 1 6.01895,-10.3837 464.41318,466.85925 0 0 1 6.28781,-10.2292 464.41318,466.85925 0 0 1 6.55663,-10.0557 464.41318,466.85925 0 0 1 6.79655,-9.8915 464.41318,466.85925 0 0 1 7.05585,-9.708 464.41318,466.85925 0 0 1 7.29564,-9.5153 464.41318,466.85925 0 0 1 7.5453,-9.3318 464.41318,466.85925 0 0 1 7.77588,-9.1292 464.41318,466.85925 0 0 1 8.01575,-8.9263 464.41318,466.85925 0 0 1 8.2364,-8.7239 464.41318,466.85925 0 0 1 8.44796,-8.50192 464.41318,466.85925 0 0 1 8.678,-8.2702 464.41318,466.85925 0 0 1 8.879775,-8.0578 464.41318,466.85925 0 0 1 9.081293,-7.8168 464.41318,466.85925 0 0 1 9.282936,-7.5851 464.41318,466.85925 0 0 1 9.465234,-7.3342 464.41318,466.85925 0 0 1 9.657162,-7.093 464.41318,466.85925 0 0 1 9.839813,-6.842 464.41318,466.85925 0 0 1 10.002765,-6.5814 464.41318,466.85925 0 0 1 10.175679,-6.321 464.41318,466.85925 0 0 1 10.329344,-6.05057 464.41318,466.85925 0 0 1 10.482771,-5.79018 464.41318,466.85925 0 0 1 10.62698869,-5.51049 464.41318,466.85925 0 0 1 10.76113531,-5.23997 464.41318,466.85925 0 0 1 10.895722,-4.95063 464.41318,466.85925 0 0 1 11.020294,-4.67068 464.41318,466.85925 0 0 1 11.13566,-4.39092 464.41318,466.85925 0 0 1 11.24115,-4.09166 464.41318,466.85925 0 0 1 11.34716,-3.8022 464.41318,466.85925 0 0 1 11.44267,-3.51281 464.41318,466.85925 0 0 1 11.5196,-3.20377 464.41318,466.85925 0 0 1 11.605958,-2.9143 464.41318,466.85925 0 0 1 11.67324,-2.6154 464.41318,466.85925 0 0 1 11.73096,-2.30617 464.41318,466.85925 0 0 1 11.79804,-1.9977 464.41318,466.85925 0 0 1 11.83627,-1.69734 464.41318,466.85925 0 0 1 11.87488,-1.38955 464.41318,466.85925 0 0 1 11.91312,-1.08108 464.41318,466.85925 0 0 1 11.93247,-0.77129 464.41318,466.85925 0 0 1 11.95162,-0.47239 464.41318,466.85925 0 0 1 11.96119,-0.14844 464.41318,466.85925 0 0 0 464.4136,-466.85972 464.41318,466.85925 0 0 0 -464.4136,-466.849964 z M 202.7655,203.11945 A 185.76527,186.7437 0 0 1 388.5292,389.86137 185.76527,186.7437 0 0 1 202.7655,576.60342 185.76527,186.7437 0 0 1 17.002151,389.86137 185.76527,186.7437 0 0 1 202.7655,203.11945 Z m 0,933.70975 A 185.76527,186.7437 0 0 0 17.002151,1323.5809 185.76527,186.7437 0 0 0 202.7655,1510.3229 185.76527,186.7437 0 0 0 388.5292,1323.5809 185.76527,186.7437 0 0 0 202.7655,1136.8292 Z" />
    <path
       id="path29908"
       style="fill:#009e2d;fill-opacity:1;stroke:none;stroke-width:0;stroke-dasharray:none;stroke-opacity:1"
       d="M 227.46534,229.05789 A 188.98384,188.98384 0 0 0 69.275567,314.83274 H 385.75773 A 188.98384,188.98384 0 0 0 227.46534,229.05789 Z M 75.970131,530.79827 a 188.98384,188.98384 0 0 0 151.495209,76.22371 188.98384,188.98384 0 0 0 151.49039,-76.22371 z" />
    <text
       xml:space="preserve"
       transform="matrix(6.8193324,0,0,6.8193324,7615.818,1065.0284)"
       id="text30089"
       style="font-size:32px;font-family:sans-serif;-inkscape-font-specification:'sans-serif, Normal';white-space:pre;shape-inside:url(#rect30091);fill:#009e2d;fill-opacity:1;stroke:none;stroke-width:0;stroke-dasharray:none;stroke-opacity:1"><tspan
         x="-1127.4277"
         y="-84.417197"
         id="tspan38609"><tspan
           style="font-family:Mistral;-inkscape-font-specification:'Mistral, Normal'"
           id="tspan38607">MEALER</tspan></tspan></text>
    <path
       id="path29908-4"
       style="fill:#d11919;fill-opacity:1;stroke:none;stroke-width:0;stroke-dasharray:none;stroke-opacity:1"
       d="M 233.82474,220.77879 A 188.98384,188.98384 0 0 0 75.634968,306.55364 H 392.11713 A 188.98384,188.98384 0 0 0 233.82474,220.77879 Z M 82.329531,522.51917 a 188.98384,188.98384 0 0 0 151.495209,76.22361 188.98384,188.98384 0 0 0 151.49039,-76.22361 z" />
    <text
       xml:space="preserve"
       transform="matrix(6.8193324,0,0,6.8193324,7622.1774,1056.7493)"
       id="text30089-9"
       style="font-size:32px;font-family:sans-serif;-inkscape-font-specification:'sans-serif, Normal';white-space:pre;shape-inside:url(#rect30091-1);display:inline;fill:#d11919;fill-opacity:1;stroke:none;stroke-width:0;stroke-dasharray:none;stroke-opacity:1"><tspan
         x="-1127.4277"
         y="-84.417197"
         id="tspan38613"><tspan
           style="font-family:Mistral;-inkscape-font-specification:'Mistral, Normal'"
           id="tspan38611">MEALER</tspan></tspan></text>
  </g>
</svg>
