<?xml version="1.0" encoding="UTF-8" standalone="no"?>
<!-- Created with Inkscape (http://www.inkscape.org/) -->

<svg
   width="151.1304mm"
   height="47.683731mm"
   viewBox="0 0 151.1304 47.683728"
   version="1.1"
   id="svg5"
   inkscape:export-filename="button_1.svg"
   inkscape:export-xdpi="96"
   inkscape:export-ydpi="96"
   inkscape:version="1.2.1 (9c6d41e410, 2022-07-14)"
   sodipodi:docname="drawing.svg"
   xmlns:inkscape="http://www.inkscape.org/namespaces/inkscape"
   xmlns:sodipodi="http://sodipodi.sourceforge.net/DTD/sodipodi-0.dtd"
   xmlns="http://www.w3.org/2000/svg"
   xmlns:svg="http://www.w3.org/2000/svg">
  <sodipodi:namedview
     id="namedview7"
     pagecolor="#ffffff"
     bordercolor="#000000"
     borderopacity="0.25"
     inkscape:showpageshadow="2"
     inkscape:pageopacity="0.0"
     inkscape:pagecheckerboard="0"
     inkscape:deskcolor="#d1d1d1"
     inkscape:document-units="mm"
     showgrid="false"
     inkscape:zoom="2.025849"
     inkscape:cx="290.00187"
     inkscape:cy="44.672628"
     inkscape:window-width="1920"
     inkscape:window-height="991"
     inkscape:window-x="-32000"
     inkscape:window-y="-32000"
     inkscape:window-maximized="0"
     inkscape:current-layer="layer1" />
  <defs
     id="defs2" />
  <g
     inkscape:label="Layer 1"
     inkscape:groupmode="layer"
     id="layer1"
     transform="translate(-749.43005,85.791405)">
    <path
       id="path536-20"
       style="fill:#00ed43;fill-opacity:1;stroke:none;stroke-width:1.02647"
       d="m 751.40762,-113.97444 a 90.838232,90.838232 0 0 0 -6.55177,-128.2976 45.419116,45.419116 0 0 1 2.43484,2.36909 45.419116,45.419116 0 0 1 2.2504,2.54397 45.419116,45.419116 0 0 1 2.0539,2.70556 45.419116,45.419116 0 0 1 1.84591,2.85047 45.419116,45.419116 0 0 1 1.628,2.98123 45.419116,45.419116 0 0 1 1.40041,3.09457 45.419116,45.419116 0 0 1 1.16529,3.18965 45.419116,45.419116 0 0 1 0.9244,3.26904 45.419116,45.419116 0 0 1 0.67716,3.32825 45.419116,45.419116 0 0 1 0.42598,3.36967 45.419116,45.419116 0 0 1 0.17322,3.39188 45.419116,45.419116 0 0 1 -0.0805,3.39555 45.419116,45.419116 0 0 1 -0.33457,3.37991 45.419116,45.419116 0 0 1 -0.58626,3.34627 45.419116,45.419116 0 0 1 -0.83429,3.29177 45.419116,45.419116 0 0 1 -1.07789,3.22113 45.419116,45.419116 0 0 1 -1.31575,3.13156 45.419116,45.419116 0 0 1 -1.5466,3.02438 45.419116,45.419116 0 0 1 -1.76698,2.90003 45.419116,45.419116 0 0 1 -1.97953,2.75999 45.419116,45.419116 0 0 1 -2.18083,2.60479 45.419116,45.419116 0 0 1 -0.79406,0.85785 45.419116,45.419116 0 0 1 -0.81673,0.83738 45.419116,45.419116 0 0 1 -0.83771,0.81591 45.419116,45.419116 0 0 1 -0.85885,0.79431 45.419116,45.419116 0 0 1 -0.87856,0.77141 45.419116,45.419116 0 0 1 -0.89909,0.74914 45.419116,45.419116 0 0 1 -0.91681,0.72551 45.419116,45.419116 0 0 1 -0.93606,0.70054 45.419116,45.419116 0 0 1 -0.95318,0.6775 45.419116,45.419116 0 0 1 -0.97111,0.65244 45.419116,45.419116 0 0 1 -0.98692,0.62809 45.419116,45.419116 0 0 1 -1.00294,0.60101 45.419116,45.419116 0 0 1 -1.0182,0.57579 45.419116,45.419116 0 0 1 -1.03263,0.54908 45.419116,45.419116 0 0 1 -1.04619,0.52275 45.419116,45.419116 0 0 1 -1.0595,0.49549 45.419116,45.419116 0 0 1 -1.07227,0.46758 45.419116,45.419116 0 0 1 -1.08301,0.44006 45.419116,45.419116 0 0 1 -1.09437,0.41212 45.419116,45.419116 0 0 1 -1.10513,0.38349 45.419116,45.419116 0 0 1 -1.11389,0.35532 45.419116,45.419116 0 0 1 -1.12304,0.32756 45.419116,45.419116 0 0 1 -1.13152,0.29639 45.419116,45.419116 0 0 1 -1.13826,0.26877 45.419116,45.419116 0 0 1 -1.14514,0.23856 45.419116,45.419116 0 0 1 -1.1499,0.20903 45.419116,45.419116 0 0 1 -1.15609,0.17937 45.419116,45.419116 0 0 1 -1.15958,0.14989 45.419116,45.419116 0 0 1 -1.16379,0.11926 45.419116,45.419116 0 0 1 -1.16667,0.0902 45.419116,45.419116 0 0 1 -1.16751,0.0603 45.419116,45.419116 0 0 1 -1.16912,0.0284 45.419116,45.419116 0 0 1 -1.16993,-7e-5 45.419116,45.419116 0 0 1 -1.1688,-0.0307 45.419116,45.419116 0 0 1 -1.16836,-0.0606 45.419116,45.419116 0 0 1 -1.16525,-0.0907 45.419116,45.419116 0 0 1 -1.16345,-0.12075 45.419116,45.419116 0 0 1 -1.16035,-0.15079 45.419116,45.419116 0 0 1 -1.15518,-0.18029 45.419116,45.419116 0 0 1 -1.15075,-0.21045 45.419116,45.419116 0 0 1 -1.14428,-0.24006 45.419116,45.419116 0 0 1 -1.13845,-0.2689 45.419116,45.419116 0 0 1 -1.13065,-0.29855 45.419116,45.419116 0 0 1 -1.12281,-0.32686 45.419116,45.419116 0 0 1 -1.11369,-0.35659 45.419116,45.419116 0 0 1 -1.10448,-0.38498 45.419116,45.419116 0 0 1 -1.09462,-0.41274 45.419116,45.419116 0 0 1 -1.08276,-0.44124 45.419116,45.419116 0 0 1 -1.07154,-0.46909 45.419116,45.419116 0 0 1 -1.05966,-0.49628 45.419116,45.419116 0 0 1 -1.04509,-0.52359 45.419116,45.419116 0 0 1 -1.0325,-0.55019 45.419116,45.419116 0 0 1 -1.01788,-0.57619 45.419116,45.419116 0 0 1 -1.0019,-0.60227 45.419116,45.419116 0 0 1 -0.98669,-0.62897 45.419116,45.419116 0 0 1 -0.97001,-0.65301 45.419116,45.419116 0 0 1 -0.95257,-0.67789 45.419116,45.419116 0 0 1 -0.93529,-0.70269 45.419116,45.419116 0 0 1 -0.91646,-0.72633 45.419116,45.419116 0 0 1 -0.89839,-0.74917 45.419116,45.419116 0 0 1 -0.87802,-0.77313 45.419116,45.419116 0 0 0 -64.14871,3.27591 45.419116,45.419116 0 0 0 3.27648,64.1481 90.838232,90.838232 0 0 0 128.29699,-6.55109 z" />
    <rect
       style="fill:#bababa;fill-opacity:1;stroke-width:0"
       id="rect411-7-3"
       width="148.05063"
       height="44.927662"
       x="749.43005"
       y="-83.035332"
       ry="22.463831" />
    <rect
       style="fill:#e0e0e0;fill-opacity:1;stroke-width:0"
       id="rect411-62"
       width="148.05063"
       height="44.927662"
       x="752.50983"
       y="-85.791405"
       ry="22.463831" />
  </g>
</svg>
