<?xml version="1.0" encoding="UTF-8" standalone="no"?>
<!-- Created with Inkscape (http://www.inkscape.org/) -->

<svg
   width="200mm"
   height="251.925mm"
   viewBox="0 0 199.99999 251.92497"
   version="1.1"
   id="svg5"
   inkscape:export-filename="door_icon.png"
   inkscape:export-xdpi="96"
   inkscape:export-ydpi="96"
   inkscape:version="1.2.1 (9c6d41e410, 2022-07-14)"
   sodipodi:docname="door_icon.svg"
   xmlns:inkscape="http://www.inkscape.org/namespaces/inkscape"
   xmlns:sodipodi="http://sodipodi.sourceforge.net/DTD/sodipodi-0.dtd"
   xmlns="http://www.w3.org/2000/svg"
   xmlns:svg="http://www.w3.org/2000/svg">
  <sodipodi:namedview
     id="namedview7"
     pagecolor="#ffffff"
     bordercolor="#000000"
     borderopacity="0.25"
     inkscape:showpageshadow="2"
     inkscape:pageopacity="0.0"
     inkscape:pagecheckerboard="0"
     inkscape:deskcolor="#d1d1d1"
     inkscape:document-units="mm"
     showgrid="false"
     inkscape:zoom="0.25323112"
     inkscape:cx="-1421.6262"
     inkscape:cy="852.97572"
     inkscape:window-width="1920"
     inkscape:window-height="1017"
     inkscape:window-x="-8"
     inkscape:window-y="-8"
     inkscape:window-maximized="1"
     inkscape:current-layer="layer1" />
  <defs
     id="defs2" />
  <g
     inkscape:label="Layer 1"
     inkscape:groupmode="layer"
     id="layer1"
     transform="translate(615.20374,783.23499)">
    <path
       id="path2359"
       style="fill:#009e2d;fill-opacity:1;stroke-width:0"
       d="M -576.95956 -769.0927 C -582.55293 -769.0927 -587.0561 -765.73621 -587.0561 -761.56655 L -587.0561 -597.08976 C -587.0561 -592.9201 -582.55293 -589.56309 -576.95956 -589.56309 L -478.20487 -589.56309 C -475.41977 -589.56309 -472.90599 -590.39642 -471.08282 -591.74694 C -470.60587 -589.65353 -469.75463 -587.32948 -468.77443 -585.62018 L -442.09958 -539.10416 C -440.58873 -536.46951 -439.36671 -536.32591 -439.35969 -538.78221 L -439.08271 -635.6719 C -439.08071 -636.27827 -439.1534 -636.98536 -439.28631 -637.74516 L -439.08219 -709.06794 C -439.07519 -711.52424 -440.28592 -715.62291 -441.79675 -718.25756 L -468.47161 -764.77358 C -469.46946 -766.51361 -470.3392 -767.15992 -470.81824 -766.69543 C -472.65896 -768.16863 -475.27868 -769.0927 -478.20487 -769.0927 L -576.95956 -769.0927 z M -569.42152 -761.40842 L -485.90672 -761.40842 C -481.17651 -761.40842 -477.36823 -758.34172 -477.36823 -754.53235 L -477.36823 -604.26969 C -477.36823 -600.46032 -481.17651 -597.39362 -485.90672 -597.39362 L -569.42152 -597.39362 C -574.15175 -597.39362 -577.96002 -600.46032 -577.96002 -604.26969 L -577.96002 -754.53235 C -577.96002 -758.34172 -574.15175 -761.40842 -569.42152 -761.40842 z M -537.28447 -726.87667 L -536.86124 -705.21856 L -566.04912 -705.21856 C -568.3478 -705.21856 -570.19874 -695.32802 -570.19874 -683.04162 C -570.19874 -670.75522 -568.3478 -660.8621 -566.04912 -660.8621 L -536.79819 -660.8621 L -536.37031 -635.67552 L -485.09592 -682.27371 L -537.28447 -726.87667 z " />
  </g>
</svg>
