<?xml version="1.0" encoding="UTF-8" standalone="no"?>
<!-- Created with Inkscape (http://www.inkscape.org/) -->

<svg
   width="169.17757mm"
   height="74.935516mm"
   viewBox="0 0 169.17756 74.935506"
   version="1.1"
   id="svg5"
   inkscape:export-filename="box_3.svg"
   inkscape:export-xdpi="96"
   inkscape:export-ydpi="96"
   inkscape:version="1.2.1 (9c6d41e410, 2022-07-14)"
   sodipodi:docname="drawing.svg"
   xmlns:inkscape="http://www.inkscape.org/namespaces/inkscape"
   xmlns:sodipodi="http://sodipodi.sourceforge.net/DTD/sodipodi-0.dtd"
   xmlns="http://www.w3.org/2000/svg"
   xmlns:svg="http://www.w3.org/2000/svg">
  <sodipodi:namedview
     id="namedview7"
     pagecolor="#ffffff"
     bordercolor="#000000"
     borderopacity="0.25"
     inkscape:showpageshadow="2"
     inkscape:pageopacity="0.0"
     inkscape:pagecheckerboard="0"
     inkscape:deskcolor="#d1d1d1"
     inkscape:document-units="mm"
     showgrid="false"
     inkscape:zoom="1.4324915"
     inkscape:cx="215.35904"
     inkscape:cy="213.26479"
     inkscape:window-width="1920"
     inkscape:window-height="991"
     inkscape:window-x="-9"
     inkscape:window-y="-9"
     inkscape:window-maximized="1"
     inkscape:current-layer="layer1" />
  <defs
     id="defs2">
    <rect
       x="175.21918"
       y="50.611118"
       width="174.17204"
       height="108.20308"
       id="rect35580" />
    <rect
       x="-213.24393"
       y="236.93768"
       width="1654.6149"
       height="746.35376"
       id="rect31759" />
    <rect
       x="402.09659"
       y="1178.3665"
       width="1089.0116"
       height="949.39478"
       id="rect38361" />
    <rect
       x="-1127.4285"
       y="-113.53265"
       width="391.44083"
       height="89.838875"
       id="rect30091" />
    <rect
       x="356.02304"
       y="319.72266"
       width="340.66519"
       height="168.93642"
       id="rect15893" />
    <rect
       x="-1127.4285"
       y="-113.53265"
       width="391.44083"
       height="89.838875"
       id="rect30091-5" />
    <rect
       x="-1127.4285"
       y="-113.53265"
       width="391.44083"
       height="89.838875"
       id="rect30091-1" />
    <rect
       x="-213.24393"
       y="236.93768"
       width="1654.6149"
       height="746.35376"
       id="rect31759-3" />
    <rect
       x="175.21918"
       y="50.611118"
       width="174.17204"
       height="108.20308"
       id="rect35580-1" />
  </defs>
  <g
     inkscape:label="Layer 1"
     inkscape:groupmode="layer"
     id="layer1"
     transform="translate(-733.51746,629.43939)">
    <rect
       style="fill:#bababa;fill-opacity:1;stroke:none;stroke-width:7.09664;stroke-dasharray:none;stroke-opacity:1"
       id="rect31347"
       width="378.22824"
       height="251.92456"
       x="-615.20374"
       y="-783.23499"
       ry="24.750603"
       rx="23.0627" />
    <path
       id="path536-2"
       style="fill:#009e2d;fill-opacity:1;stroke:none;stroke-width:0.564999"
       d="m 376.4703,-165.4263 a 50,50 0 0 0 -50.00004,50.00005 25,25 0 0 1 0.0698,-1.86862 25,25 0 0 1 0.20929,-1.85777 25,25 0 0 1 0.34778,-1.83709 25,25 0 0 1 0.48369,-1.80558 25,25 0 0 1 0.61754,-1.76475 25,25 0 0 1 0.74775,-1.71359 25,25 0 0 1 0.87334,-1.65261 25,25 0 0 1 0.99477,-1.58337 25,25 0 0 1 1.11001,-1.5043 25,25 0 0 1 1.21956,-1.41697 25,25 0 0 1 1.32188,-1.32188 25,25 0 0 1 1.41697,-1.21957 25,25 0 0 1 1.5043,-1.11001 25,25 0 0 1 1.58337,-0.99477 25,25 0 0 1 1.65261,-0.87333 25,25 0 0 1 1.71359,-0.74776 25,25 0 0 1 1.76475,-0.61753 25,25 0 0 1 1.80609,-0.48369 25,25 0 0 1 1.83658,-0.34778 25,25 0 0 1 1.85777,-0.20929 25,25 0 0 1 1.86862,-0.0698 25,25 0 0 1 0.64337,0.008 25,25 0 0 1 0.64337,0.0248 25,25 0 0 1 0.64234,0.0413 25,25 0 0 1 0.64131,0.0579 25,25 0 0 1 0.63923,0.0744 25,25 0 0 1 0.63769,0.091 25,25 0 0 1 0.63459,0.10697 25,25 0 0 1 0.63148,0.12402 25,25 0 0 1 0.62839,0.13953 25,25 0 0 1 0.62477,0.15606 25,25 0 0 1 0.62063,0.17156 25,25 0 0 1 0.61547,0.18811 25,25 0 0 1 0.61081,0.2036 25,25 0 0 1 0.60513,0.21963 25,25 0 0 1 0.59945,0.23461 25,25 0 0 1 0.59325,0.25011 25,25 0 0 1 0.58652,0.26562 25,25 0 0 1 0.5793,0.28009 25,25 0 0 1 0.57205,0.29507 25,25 0 0 1 0.56431,0.31006 25,25 0 0 1 0.55604,0.32401 25,25 0 0 1 0.54777,0.33848 25,25 0 0 1 0.53847,0.35295 25,25 0 0 1 0.52968,0.36587 25,25 0 0 1 0.51987,0.37982 25,25 0 0 1 0.50953,0.39274 25,25 0 0 1 0.49971,0.40618 25,25 0 0 1 0.48886,0.41858 25,25 0 0 1 0.478,0.43149 25,25 0 0 1 0.46716,0.44339 25,25 0 0 1 0.45527,0.45475 25,25 0 0 1 0.44286,0.46716 25,25 0 0 1 0.4315,0.478 25,25 0 0 1 0.41858,0.48886 25,25 0 0 1 0.40618,0.49971 25,25 0 0 1 0.39274,0.50953 25,25 0 0 1 0.37982,0.51987 25,25 0 0 1 0.36639,0.52968 25,25 0 0 1 0.35243,0.53847 25,25 0 0 1 0.33848,0.54777 25,25 0 0 1 0.32401,0.55604 25,25 0 0 1 0.31006,0.56431 25,25 0 0 1 0.29507,0.57206 25,25 0 0 1 0.28061,0.57929 25,25 0 0 1 0.2651,0.58653 25,25 0 0 1 0.25011,0.59324 25,25 0 0 1 0.23513,0.59945 25,25 0 0 1 0.21911,0.60513 25,25 0 0 1 0.2036,0.61081 25,25 0 0 1 0.1881,0.61599 25,25 0 0 1 0.17157,0.62011 25,25 0 0 1 0.15606,0.62477 25,25 0 0 1 0.14004,0.62839 25,25 0 0 1 0.12351,0.63148 25,25 0 0 1 0.10697,0.63511 25,25 0 0 1 0.091,0.63717 25,25 0 0 1 0.0744,0.63923 25,25 0 0 1 0.0579,0.64131 25,25 0 0 1 0.0413,0.64234 25,25 0 0 1 0.0253,0.64337 25,25 0 0 1 0.008,0.64389 25,25 0 0 0 25,24.999985 25,25 0 0 0 24.99951,-25.000015 50,50 0 0 0 -49.99954,-50.00005 z" />
    <path
       id="path536"
       style="fill:#00ed43;fill-opacity:1;stroke:none;stroke-width:0.564999"
       d="m 373.23281,-165.25954 a 50,50 0 0 0 -50.00004,50.00005 25,25 0 0 1 0.0698,-1.86862 25,25 0 0 1 0.20929,-1.85777 25,25 0 0 1 0.34778,-1.83709 25,25 0 0 1 0.48369,-1.80558 25,25 0 0 1 0.61754,-1.76475 25,25 0 0 1 0.74775,-1.71359 25,25 0 0 1 0.87334,-1.65261 25,25 0 0 1 0.99477,-1.58337 25,25 0 0 1 1.11001,-1.5043 25,25 0 0 1 1.21956,-1.41697 25,25 0 0 1 1.32188,-1.32188 25,25 0 0 1 1.41697,-1.21957 25,25 0 0 1 1.5043,-1.11001 25,25 0 0 1 1.58337,-0.99477 25,25 0 0 1 1.65261,-0.87333 25,25 0 0 1 1.71359,-0.74776 25,25 0 0 1 1.76475,-0.61753 25,25 0 0 1 1.80609,-0.48369 25,25 0 0 1 1.83658,-0.34778 25,25 0 0 1 1.85777,-0.20929 25,25 0 0 1 1.86862,-0.0698 25,25 0 0 1 0.64337,0.008 25,25 0 0 1 0.64337,0.0248 25,25 0 0 1 0.64234,0.0413 25,25 0 0 1 0.64131,0.0579 25,25 0 0 1 0.63923,0.0744 25,25 0 0 1 0.63769,0.091 25,25 0 0 1 0.63459,0.10697 25,25 0 0 1 0.63148,0.12402 25,25 0 0 1 0.62839,0.13953 25,25 0 0 1 0.62477,0.15606 25,25 0 0 1 0.62063,0.17156 25,25 0 0 1 0.61547,0.18811 25,25 0 0 1 0.61081,0.2036 25,25 0 0 1 0.60513,0.21963 25,25 0 0 1 0.59945,0.23461 25,25 0 0 1 0.59325,0.25011 25,25 0 0 1 0.58652,0.26562 25,25 0 0 1 0.5793,0.28009 25,25 0 0 1 0.57205,0.29507 25,25 0 0 1 0.56431,0.31006 25,25 0 0 1 0.55604,0.32401 25,25 0 0 1 0.54777,0.33848 25,25 0 0 1 0.53847,0.35295 25,25 0 0 1 0.52968,0.36587 25,25 0 0 1 0.51987,0.37982 25,25 0 0 1 0.50953,0.39274 25,25 0 0 1 0.49971,0.40618 25,25 0 0 1 0.48886,0.41858 25,25 0 0 1 0.478,0.43149 25,25 0 0 1 0.46716,0.44339 25,25 0 0 1 0.45527,0.45475 25,25 0 0 1 0.44286,0.46716 25,25 0 0 1 0.4315,0.478 25,25 0 0 1 0.41858,0.48886 25,25 0 0 1 0.40618,0.49971 25,25 0 0 1 0.39274,0.50953 25,25 0 0 1 0.37982,0.51987 25,25 0 0 1 0.36639,0.52968 25,25 0 0 1 0.35243,0.53847 25,25 0 0 1 0.33848,0.54777 25,25 0 0 1 0.32401,0.55604 25,25 0 0 1 0.31006,0.56431 25,25 0 0 1 0.29507,0.57206 25,25 0 0 1 0.28061,0.57929 25,25 0 0 1 0.2651,0.58653 25,25 0 0 1 0.25011,0.59324 25,25 0 0 1 0.23513,0.59945 25,25 0 0 1 0.21911,0.60513 25,25 0 0 1 0.2036,0.61081 25,25 0 0 1 0.1881,0.61599 25,25 0 0 1 0.17157,0.62011 25,25 0 0 1 0.15606,0.62477 25,25 0 0 1 0.14004,0.62839 25,25 0 0 1 0.12351,0.63148 25,25 0 0 1 0.10697,0.63511 25,25 0 0 1 0.091,0.63717 25,25 0 0 1 0.0744,0.63923 25,25 0 0 1 0.0579,0.64131 25,25 0 0 1 0.0413,0.64234 25,25 0 0 1 0.0253,0.64337 25,25 0 0 1 0.008,0.64389 25,25 0 0 0 25,24.999985 25,25 0 0 0 24.99951,-25.000015 50,50 0 0 0 -49.99954,-50.00005 z" />
    <path
       id="path536-9"
       style="fill:#009e2d;fill-opacity:1;stroke:none;stroke-width:10.5234"
       d="m 232.16001,-94.138502 a 928.82639,933.71855 0 0 0 -928.82729,933.719422 928.82639,933.71855 0 0 0 928.82729,933.70968 464.41318,466.85925 0 0 1 -34.71244,-1.3035 464.41318,466.85925 0 0 1 -34.51101,-3.9082 464.41318,466.85925 0 0 1 -34.12678,-6.4947 464.41318,466.85925 0 0 1 -33.541318,-9.0325 464.41318,466.85925 0 0 1 -32.78295,-11.5322 464.41318,466.85925 0 0 1 -31.83254,-13.964 464.41318,466.85925 0 0 1 -30.69985631,-16.309 464.41318,466.85925 0 0 1 -29.41344369,-18.5766 464.41318,466.85925 0 0 1 -27.944607,-20.7286 464.41318,466.85925 0 0 1 -26.322256,-22.7747 464.41318,466.85925 0 0 1 -24.556039,-24.6853 464.41318,466.85925 0 0 1 -22.65526,-26.461 464.41318,466.85925 0 0 1 -20.62017,-28.0918 464.41318,466.85925 0 0 1 -18.4793,-29.5684 464.41318,466.85925 0 0 1 -16.22344,-30.8614 464.41318,466.85925 0 0 1 -13.8909,-32.0003 464.41318,466.85925 0 0 1 -11.47173,-32.9555 464.41318,466.85925 0 0 1 -8.98529,-33.7277 464.41318,466.85925 0 0 1 -6.46053,-34.297 464.41318,466.85925 0 0 1 -3.8878,-34.6926 464.41318,466.85925 0 0 1 -1.29668,-34.8953 464.41318,466.85925 0 0 1 0.14775,-12.0145 464.41318,466.85925 0 0 1 0.4606,-12.0147 464.41318,466.85925 0 0 1 0.76719,-11.9951 464.41318,466.85925 0 0 1 1.0756,-11.9762 464.41318,466.85925 0 0 1 1.38214,-11.9374 464.41318,466.85925 0 0 1 1.69047,-11.9082 464.41318,466.85925 0 0 1 1.98707,-11.8507 464.41318,466.85925 0 0 1 2.30395,-11.7926 464.41318,466.85925 0 0 1 2.59196,-11.7345 464.41318,466.85925 0 0 1 2.89897,-11.6672 464.41318,466.85925 0 0 1 3.18727,-11.5899 464.41318,466.85925 0 0 1 3.49436,-11.4935 464.41318,466.85925 0 0 1 3.78222,-11.4066 464.41318,466.85925 0 0 1 4.07973,-11.3005 464.41318,466.85925 0 0 1 4.35839,-11.1941 464.41318,466.85925 0 0 1 4.64618,-11.0786 464.41318,466.85925 0 0 1 4.9342,-10.9531 464.41318,466.85925 0 0 1 5.20313,-10.818 464.41318,466.85925 0 0 1 5.48136,-10.6828 464.41318,466.85925 0 0 1 5.7598,-10.538 464.41318,466.85925 0 0 1 6.0191,-10.3837 464.41318,466.85925 0 0 1 6.28775,-10.2292 464.41318,466.85925 0 0 1 6.55661,-10.0557 464.41318,466.85925 0 0 1 6.79655,-9.8913 464.41318,466.85925 0 0 1 7.05571,-9.7083 464.41318,466.85925 0 0 1 7.29572,-9.5151 464.41318,466.85925 0 0 1 7.54544,-9.3319 464.41318,466.85925 0 0 1 7.77573,-9.12922 464.41318,466.85925 0 0 1 8.01589,-8.9262 464.41318,466.85925 0 0 1 8.2364,-8.724 464.41318,466.85925 0 0 1 8.447828,-8.5018 464.41318,466.85925 0 0 1 8.677994,-8.2703 464.41318,466.85925 0 0 1 8.879778,-8.0578 464.41318,466.85925 0 0 1 9.081282,-7.8168 464.41318,466.85925 0 0 1 9.282937,-7.5851 464.41318,466.85925 0 0 1 9.465234,-7.3342 464.41318,466.85925 0 0 1 9.657173,-7.0929 464.41318,466.85925 0 0 1 9.839878,-6.84201 464.41318,466.85925 0 0 1 10.002689,-6.58148 464.41318,466.85925 0 0 1 10.1756897,-6.32098 464.41318,466.85925 0 0 1 10.329268,-6.05064 464.41318,466.85925 0 0 1 10.4829123,-5.79019 464.41318,466.85925 0 0 1 10.626988,-5.51042 464.41318,466.85925 0 0 1 10.761211,-5.24003 464.41318,466.85925 0 0 1 10.89571,-4.95057 464.41318,466.85925 0 0 1 11.0203,-4.67054 464.41318,466.85925 0 0 1 11.13565,-4.39092 464.41318,466.85925 0 0 1 11.24123,-4.0918 464.41318,466.85925 0 0 1 11.34695,-3.80213 464.41318,466.85925 0 0 1 11.442738,-3.5128 464.41318,466.85925 0 0 1 11.51974,-3.20378 464.41318,466.85925 0 0 1 11.60569,-2.91437 464.41318,466.85925 0 0 1 11.67345,-2.61526 464.41318,466.85925 0 0 1 11.73088,-2.30625 464.41318,466.85925 0 0 1 11.79798,-1.99769 464.41318,466.85925 0 0 1 11.83633,-1.6974 464.41318,466.85925 0 0 1 11.87488,-1.38949 464.41318,466.85925 0 0 1 11.91313,-1.08122 464.41318,466.85925 0 0 1 11.9324,-0.77128 464.41318,466.85925 0 0 1 11.95161,-0.4717 464.41318,466.85925 0 0 1 11.96133,-0.14845 A 464.41318,466.85925 0 0 0 696.56724,372.7196 464.41318,466.85925 0 0 0 232.15377,-94.130427 Z M 226.90895,180.71033 A 185.76527,186.7437 0 0 1 412.67265,367.45209 185.76527,186.7437 0 0 1 226.90895,554.19407 185.76527,186.7437 0 0 1 41.145532,367.45209 185.76527,186.7437 0 0 1 226.90895,180.71033 Z m 0,933.70977 a 185.76527,186.7437 0 0 0 -185.763418,186.7515 185.76527,186.7437 0 0 0 185.763418,186.742 185.76527,186.7437 0 0 0 185.7637,-186.742 185.76527,186.7437 0 0 0 -185.7637,-186.7515 z" />
    <ellipse
       style="fill:#00ed43;fill-opacity:1;stroke:none;stroke-width:0;stroke-dasharray:none;stroke-opacity:1"
       id="path30328"
       cx="249.53918"
       cy="407.07513"
       rx="306.05664"
       ry="235.71294" />
    <path
       id="path536-9-2"
       style="fill:#00ed43;fill-opacity:1;stroke:none;stroke-width:10.5234"
       d="m 208.01663,-71.729266 a 928.82639,933.71855 0 0 0 -928.82729,933.719466 928.82639,933.71855 0 0 0 928.82729,933.7096 464.41318,466.85925 0 0 1 -34.71251,-1.3033 464.41318,466.85925 0 0 1 -34.51093,-3.9083 464.41318,466.85925 0 0 1 -34.12665,-6.4948 464.41318,466.85925 0 0 1 -33.541468,-9.0325 464.41318,466.85925 0 0 1 -32.783,-11.5321 464.41318,466.85925 0 0 1 -31.8325483,-13.964 464.41318,466.85925 0 0 1 -30.6997787,-16.309 464.41318,466.85925 0 0 1 -29.41338,-18.5766 464.41318,466.85925 0 0 1 -27.944747,-20.7288 464.41318,466.85925 0 0 1 -26.322118,-22.7745 464.41318,466.85925 0 0 1 -24.55612,-24.6854 464.41318,466.85925 0 0 1 -22.65517,-26.4609 464.41318,466.85925 0 0 1 -20.62011,-28.0918 464.41318,466.85925 0 0 1 -18.47951,-29.5685 464.41318,466.85925 0 0 1 -16.22343,-30.8614 464.41318,466.85925 0 0 1 -13.8907,-32.0001 464.41318,466.85925 0 0 1 -11.4718,-32.9558 464.41318,466.85925 0 0 1 -8.98522,-33.7275 464.41318,466.85925 0 0 1 -6.46054,-34.2972 464.41318,466.85925 0 0 1 -3.88793,-34.6925 464.41318,466.85925 0 0 1 -1.29668,-34.8953 464.41318,466.85925 0 0 1 0.14775,-12.0146 464.41318,466.85925 0 0 1 0.4606,-12.0146 464.41318,466.85925 0 0 1 0.76727,-11.9951 464.41318,466.85925 0 0 1 1.07566,-11.9761 464.41318,466.85925 0 0 1 1.382,-11.9375 464.41318,466.85925 0 0 1 1.68866,-11.9081 464.41318,466.85925 0 0 1 1.98701,-11.8507 464.41318,466.85925 0 0 1 2.30395,-11.7927 464.41318,466.85925 0 0 1 2.59196,-11.7346 464.41318,466.85925 0 0 1 2.89911,-11.6673 464.41318,466.85925 0 0 1 3.1872,-11.5897 464.41318,466.85925 0 0 1 3.49415,-11.4934 464.41318,466.85925 0 0 1 3.78242,-11.4066 464.41318,466.85925 0 0 1 4.07974,-11.3005 464.41318,466.85925 0 0 1 4.35824,-11.1944 464.41318,466.85925 0 0 1 4.6464,-11.0786 464.41318,466.85925 0 0 1 4.93412,-10.9528 464.41318,466.85925 0 0 1 5.20313,-10.818 464.41318,466.85925 0 0 1 5.48137,-10.6828 464.41318,466.85925 0 0 1 5.7598,-10.538 464.41318,466.85925 0 0 1 6.01895,-10.3837 464.41318,466.85925 0 0 1 6.28781,-10.2292 464.41318,466.85925 0 0 1 6.55663,-10.0557 464.41318,466.85925 0 0 1 6.79655,-9.8915 464.41318,466.85925 0 0 1 7.05585,-9.708 464.41318,466.85925 0 0 1 7.29564,-9.5153 464.41318,466.85925 0 0 1 7.5453,-9.3318 464.41318,466.85925 0 0 1 7.77588,-9.1292 464.41318,466.85925 0 0 1 8.01575,-8.9263 464.41318,466.85925 0 0 1 8.2364,-8.7239 464.41318,466.85925 0 0 1 8.44796,-8.50192 464.41318,466.85925 0 0 1 8.678,-8.2702 464.41318,466.85925 0 0 1 8.879775,-8.0578 464.41318,466.85925 0 0 1 9.081293,-7.8168 464.41318,466.85925 0 0 1 9.282936,-7.5851 464.41318,466.85925 0 0 1 9.465234,-7.3342 464.41318,466.85925 0 0 1 9.657162,-7.093 464.41318,466.85925 0 0 1 9.839813,-6.842 464.41318,466.85925 0 0 1 10.002765,-6.5814 464.41318,466.85925 0 0 1 10.175679,-6.321 464.41318,466.85925 0 0 1 10.329344,-6.05057 464.41318,466.85925 0 0 1 10.482771,-5.79018 464.41318,466.85925 0 0 1 10.62698869,-5.51049 464.41318,466.85925 0 0 1 10.76113531,-5.23997 464.41318,466.85925 0 0 1 10.895722,-4.95063 464.41318,466.85925 0 0 1 11.020294,-4.67068 464.41318,466.85925 0 0 1 11.13566,-4.39092 464.41318,466.85925 0 0 1 11.24115,-4.09166 464.41318,466.85925 0 0 1 11.34716,-3.8022 464.41318,466.85925 0 0 1 11.44267,-3.51281 464.41318,466.85925 0 0 1 11.5196,-3.20377 464.41318,466.85925 0 0 1 11.605958,-2.9143 464.41318,466.85925 0 0 1 11.67324,-2.6154 464.41318,466.85925 0 0 1 11.73096,-2.30617 464.41318,466.85925 0 0 1 11.79804,-1.9977 464.41318,466.85925 0 0 1 11.83627,-1.69734 464.41318,466.85925 0 0 1 11.87488,-1.38955 464.41318,466.85925 0 0 1 11.91312,-1.08108 464.41318,466.85925 0 0 1 11.93247,-0.77129 464.41318,466.85925 0 0 1 11.95162,-0.47239 464.41318,466.85925 0 0 1 11.96119,-0.14844 464.41318,466.85925 0 0 0 464.4136,-466.85972 464.41318,466.85925 0 0 0 -464.4136,-466.849964 z M 202.7655,203.11945 A 185.76527,186.7437 0 0 1 388.5292,389.86137 185.76527,186.7437 0 0 1 202.7655,576.60342 185.76527,186.7437 0 0 1 17.002151,389.86137 185.76527,186.7437 0 0 1 202.7655,203.11945 Z m 0,933.70975 A 185.76527,186.7437 0 0 0 17.002151,1323.5809 185.76527,186.7437 0 0 0 202.7655,1510.3229 185.76527,186.7437 0 0 0 388.5292,1323.5809 185.76527,186.7437 0 0 0 202.7655,1136.8292 Z" />
    <path
       id="path536-9-3"
       style="fill:#00ff00;stroke:#818384;stroke-width:0.564999"
       d="m 464.41921,-245.89778 a 50,50 0 0 0 -50.00005,50.00004 50,50 0 0 0 50.00005,49.99954 25,25 0 0 1 -1.86862,-0.0698 25,25 0 0 1 -1.85777,-0.20929 25,25 0 0 1 -1.8371,-0.34778 25,25 0 0 1 -1.80557,-0.48369 25,25 0 0 1 -1.76475,-0.61754 25,25 0 0 1 -1.71359,-0.74776 25,25 0 0 1 -1.65261,-0.87333 25,25 0 0 1 -1.58337,-0.99477 25,25 0 0 1 -1.5043,-1.11001 25,25 0 0 1 -1.41697,-1.21956 25,25 0 0 1 -1.32188,-1.32189 25,25 0 0 1 -1.21956,-1.41696 25,25 0 0 1 -1.11002,-1.5043 25,25 0 0 1 -0.99477,-1.58337 25,25 0 0 1 -0.87333,-1.65261 25,25 0 0 1 -0.74776,-1.71359 25,25 0 0 1 -0.61753,-1.76475 25,25 0 0 1 -0.48369,-1.80609 25,25 0 0 1 -0.34778,-1.83659 25,25 0 0 1 -0.20929,-1.85776 25,25 0 0 1 -0.0698,-1.86862 25,25 0 0 1 0.008,-0.64337 25,25 0 0 1 0.0248,-0.64338 25,25 0 0 1 0.0413,-0.64233 25,25 0 0 1 0.0579,-0.64131 25,25 0 0 1 0.0744,-0.63924 25,25 0 0 1 0.0909,-0.63768 25,25 0 0 1 0.10697,-0.63459 25,25 0 0 1 0.12402,-0.63149 25,25 0 0 1 0.13953,-0.62838 25,25 0 0 1 0.15606,-0.62477 25,25 0 0 1 0.17157,-0.62064 25,25 0 0 1 0.1881,-0.61546 25,25 0 0 1 0.2036,-0.61081 25,25 0 0 1 0.21963,-0.60514 25,25 0 0 1 0.23461,-0.59944 25,25 0 0 1 0.25011,-0.59325 25,25 0 0 1 0.26562,-0.58653 25,25 0 0 1 0.28009,-0.57929 25,25 0 0 1 0.29507,-0.57206 25,25 0 0 1 0.31006,-0.5643 25,25 0 0 1 0.32401,-0.55604 25,25 0 0 1 0.33848,-0.54777 25,25 0 0 1 0.35295,-0.53847 25,25 0 0 1 0.36587,-0.52968 25,25 0 0 1 0.37982,-0.51987 25,25 0 0 1 0.39274,-0.50953 25,25 0 0 1 0.40618,-0.49971 25,25 0 0 1 0.41858,-0.48886 25,25 0 0 1 0.43149,-0.478 25,25 0 0 1 0.44339,-0.46716 25,25 0 0 1 0.45475,-0.45528 25,25 0 0 1 0.46716,-0.44287 25,25 0 0 1 0.478,-0.43149 25,25 0 0 1 0.48886,-0.41857 25,25 0 0 1 0.49971,-0.40619 25,25 0 0 1 0.50953,-0.39274 25,25 0 0 1 0.51987,-0.37982 25,25 0 0 1 0.52968,-0.36638 25,25 0 0 1 0.53847,-0.35243 25,25 0 0 1 0.54777,-0.33848 25,25 0 0 1 0.55604,-0.32401 25,25 0 0 1 0.56431,-0.31006 25,25 0 0 1 0.57205,-0.29508 25,25 0 0 1 0.5793,-0.2806 25,25 0 0 1 0.58652,-0.2651 25,25 0 0 1 0.59325,-0.25011 25,25 0 0 1 0.59945,-0.23513 25,25 0 0 1 0.60513,-0.21911 25,25 0 0 1 0.61081,-0.2036 25,25 0 0 1 0.61599,-0.18811 25,25 0 0 1 0.62011,-0.17156 25,25 0 0 1 0.62477,-0.15606 25,25 0 0 1 0.62839,-0.14005 25,25 0 0 1 0.63148,-0.1235 25,25 0 0 1 0.63511,-0.10697 25,25 0 0 1 0.63717,-0.0909 25,25 0 0 1 0.63923,-0.0744 25,25 0 0 1 0.64131,-0.0579 25,25 0 0 1 0.64234,-0.0413 25,25 0 0 1 0.64337,-0.0253 25,25 0 0 1 0.64389,-0.008 25,25 0 0 0 25.00002,-25.00002 25,25 0 0 0 -25.00002,-24.99951 z m -0.28267,14.71797 a 10,10 0 0 1 9.99991,9.9999 10,10 0 0 1 -9.99991,9.9999 10,10 0 0 1 -9.99991,-9.99991 10,10 0 0 1 9.99991,-9.99989 z m 0,49.99952 a 10,10 0 0 0 -9.99991,10.00042 10,10 0 0 0 9.99991,9.99991 10,10 0 0 0 9.99991,-9.99991 10,10 0 0 0 -9.99991,-10.00042 z" />
    <path
       id="path29908"
       style="fill:#009e2d;fill-opacity:1;stroke:none;stroke-width:0;stroke-dasharray:none;stroke-opacity:1"
       d="M 227.46534,229.05789 A 188.98384,188.98384 0 0 0 69.275567,314.83274 H 385.75773 A 188.98384,188.98384 0 0 0 227.46534,229.05789 Z M 75.970131,530.79827 a 188.98384,188.98384 0 0 0 151.495209,76.22371 188.98384,188.98384 0 0 0 151.49039,-76.22371 z" />
    <text
       xml:space="preserve"
       transform="matrix(6.8193324,0,0,6.8193324,7615.818,1065.0284)"
       id="text30089"
       style="font-size:32px;font-family:sans-serif;-inkscape-font-specification:'sans-serif, Normal';white-space:pre;shape-inside:url(#rect30091);display:inline;fill:#009e2d;fill-opacity:1;stroke:none;stroke-width:0;stroke-dasharray:none;stroke-opacity:1"><tspan
         x="-1127.4277"
         y="-84.417197"
         id="tspan3617"><tspan
           style="font-family:Mistral;-inkscape-font-specification:'Mistral, Normal'"
           id="tspan3615">MEALER</tspan></tspan></text>
    <path
       id="path29908-4"
       style="fill:#d11919;fill-opacity:1;stroke:none;stroke-width:0;stroke-dasharray:none;stroke-opacity:1"
       d="M 238.00406,217.12189 A 188.98384,188.98384 0 0 0 79.814286,302.89674 H 396.29645 A 188.98384,188.98384 0 0 0 238.00406,217.12189 Z M 86.508849,518.86227 a 188.98384,188.98384 0 0 0 151.495211,76.22361 188.98384,188.98384 0 0 0 151.49039,-76.22361 z" />
    <text
       xml:space="preserve"
       transform="matrix(6.8193324,0,0,6.8193324,7626.3567,1053.0924)"
       id="text30089-9"
       style="font-size:32px;font-family:sans-serif;-inkscape-font-specification:'sans-serif, Normal';white-space:pre;shape-inside:url(#rect30091-1);display:inline;fill:#d11919;fill-opacity:1;stroke:none;stroke-width:0;stroke-dasharray:none;stroke-opacity:1"><tspan
         x="-1127.4277"
         y="-84.417197"
         id="tspan3621"><tspan
           style="font-family:Mistral;-inkscape-font-specification:'Mistral, Normal'"
           id="tspan3619">MEALER</tspan></tspan></text>
    <rect
       style="fill:#bababa;fill-opacity:1;stroke-width:0"
       id="rect411-7"
       width="407.48346"
       height="44.927662"
       x="740.9129"
       y="79.013779"
       ry="22.463831" />
    <rect
       style="fill:#e0e0e0;fill-opacity:1;stroke-width:0"
       id="rect411"
       width="407.48346"
       height="44.927662"
       x="738.09711"
       y="81.925507"
       ry="22.463831" />
    <path
       style="fill:#009e2d;fill-opacity:1;stroke:none;stroke-width:1.6567"
       d="m 793.9859,261.46345 a 29.245128,29.399163 0 0 0 -29.2449,29.40039 29.245128,29.399163 0 0 0 29.2449,29.3989 29.245128,29.399163 0 0 0 29.2448,-29.3989 29.245128,29.399163 0 0 0 -29.2448,-29.40039 z"
       id="path6135" />
    <path
       style="fill:#009e2d;fill-opacity:1;stroke:none;stroke-width:3.44285"
       d="m 873.4945,617.34199 a 61.095473,60.775368 4.6852589 0 1 65.85563,-55.58068 61.095473,60.775368 4.6852589 0 1 55.92648,65.56223 61.095473,60.775368 4.6852589 0 1 -65.85548,55.58056 61.095473,60.775368 4.6852589 0 1 -55.92654,-65.56199 z"
       id="path6133" />
    <path
       style="fill:#009e2d;fill-opacity:1;stroke:none;stroke-width:3.44285"
       d="m 800.10048,596.76218 a 305.47738,303.87686 4.6852589 0 0 279.63552,327.8138 305.47738,303.87686 4.6852589 0 0 329.275,-277.90976 152.73868,151.93842 4.6852589 0 1 -1.3527,11.28379 152.73868,151.93842 4.6852589 0 1 -2.1964,11.14842 152.73868,151.93842 4.6852589 0 1 -3.0299,10.95428 152.73868,151.93842 4.6852589 0 1 -3.8416,10.69538 152.73868,151.93842 4.6852589 0 1 -4.6362,10.38132 152.73868,151.93842 4.6852589 0 1 -5.404,10.00649 152.73868,151.93842 4.6852589 0 1 -6.1382,9.57441 152.73868,151.93842 4.6852589 0 1 -6.8433,9.09444 152.73868,151.93842 4.6852589 0 1 -7.5058,8.55788 152.73868,151.93842 4.6852589 0 1 -8.1295,7.97419 152.73868,151.93842 4.6852589 0 1 -8.7049,7.34791 152.73868,151.93842 4.6852589 0 1 -9.2335,6.67998 152.73868,151.93842 4.6852589 0 1 -9.7109,5.97299 152.73868,151.93842 4.6852589 0 1 -10.1351,5.23526 152.73868,151.93842 4.6852589 0 1 -10.4966,4.46518 152.73868,151.93842 4.6852589 0 1 -10.8056,3.6744 152.73868,151.93842 4.6852589 0 1 -11.0521,2.85977 152.73868,151.93842 4.6852589 0 1 -11.2377,2.02844 152.73868,151.93842 4.6852589 0 1 -11.3559,1.19005 152.73868,151.93842 4.6852589 0 1 -11.4159,0.34061 152.73868,151.93842 4.6852589 0 1 -11.4131,-0.5097 152.73868,151.93842 4.6852589 0 1 -3.9137,-0.36864 152.73868,151.93842 4.6852589 0 1 -3.9054,-0.47019 152.73868,151.93842 4.6852589 0 1 -3.8906,-0.57086 152.73868,151.93842 4.6852589 0 1 -3.8764,-0.67066 152.73868,151.93842 4.6852589 0 1 -3.8556,-0.76963 152.73868,151.93842 4.6852589 0 1 -3.8376,-0.86937 152.73868,151.93842 4.6852589 0 1 -3.8109,-0.96466 152.73868,151.93842 4.6852589 0 1 -3.7838,-1.06628 152.73868,151.93842 4.6852589 0 1 -3.757,-1.1589 152.73868,151.93842 4.6852589 0 1 -3.7269,-1.25698 152.73868,151.93842 4.6852589 0 1 -3.6938,-1.34912 152.73868,151.93842 4.6852589 0 1 -3.6544,-1.44644 152.73868,151.93842 4.6852589 0 1 -3.6181,-1.53812 152.73868,151.93842 4.6852589 0 1 -3.576,-1.63212 152.73868,151.93842 4.6852589 0 1 -3.5334,-1.72029 152.73868,151.93842 4.6852589 0 1 -3.4884,-1.81104 152.73868,151.93842 4.6852589 0 1 -3.4394,-1.90173 152.73868,151.93842 4.6852589 0 1 -3.3884,-1.98563 152.73868,151.93842 4.6852589 0 1 -3.3369,-2.07265 152.73868,151.93842 4.6852589 0 1 -3.2822,-2.15975 152.73868,151.93842 4.6852589 0 1 -3.2249,-2.2402 152.73868,151.93842 4.6852589 0 1 -3.1674,-2.32361 152.73868,151.93842 4.6852589 0 1 -3.1037,-2.40656 152.73868,151.93842 4.6852589 0 1 -3.0435,-2.48058 152.73868,151.93842 4.6852589 0 1 -2.9772,-2.56004 152.73868,151.93842 4.6852589 0 1 -2.9075,-2.63313 152.73868,151.93842 4.6852589 0 1 -2.8412,-2.70967 152.73868,151.93842 4.6852589 0 1 -2.7689,-2.77952 152.73868,151.93842 4.6852589 0 1 -2.6965,-2.85216 152.73868,151.93842 4.6852589 0 1 -2.6245,-2.91885 152.73868,151.93842 4.6852589 0 1 -2.5475,-2.98083 152.73868,151.93842 4.6852589 0 1 -2.4642,-3.05116 152.73868,151.93842 4.6852589 0 1 -2.3896,-3.11098 152.73868,151.93842 4.6852589 0 1 -2.3063,-3.16995 152.73868,151.93842 4.6852589 0 1 -2.2252,-3.22953 152.73868,151.93842 4.6852589 0 1 -2.1385,-3.28246 152.73868,151.93842 4.6852589 0 1 -2.0547,-3.33849 152.73868,151.93842 4.6852589 0 1 -1.9679,-3.39131 152.73868,151.93842 4.6852589 0 1 -1.8788,-3.43732 152.73868,151.93842 4.6852589 0 1 -1.7898,-3.48672 152.73868,151.93842 4.6852589 0 1 -1.697,-3.52948 152.73868,151.93842 4.6852589 0 1 -1.608,-3.57277 152.73868,151.93842 4.6852589 0 1 -1.5128,-3.61257 152.73868,151.93842 4.6852589 0 1 -1.421,-3.64893 152.73868,151.93842 4.6852589 0 1 -1.3231,-3.68499 152.73868,151.93842 4.6852589 0 1 -1.2283,-3.71834 152.73868,151.93842 4.6852589 0 1 -1.1341,-3.74822 152.73868,151.93842 4.6852589 0 1 -1.0339,-3.77488 152.73868,151.93842 4.6852589 0 1 -0.9365,-3.80139 152.73868,151.93842 4.6852589 0 1 -0.8396,-3.82518 152.73868,151.93842 4.6852589 0 1 -0.737,-3.84164 152.73868,151.93842 4.6852589 0 1 -0.64,-3.86224 152.73868,151.93842 4.6852589 0 1 -0.5409,-3.87602 152.73868,151.93842 4.6852589 0 1 -0.4384,-3.88698 152.73868,151.93842 4.6852589 0 1 -0.3362,-3.90014 152.73868,151.93842 4.6852589 0 1 -0.2372,-3.90481 152.73868,151.93842 4.6852589 0 1 -0.1356,-3.90928 152.73868,151.93842 4.6852589 0 1 -0.034,-3.91336 152.73868,151.93842 4.6852589 0 1 0.067,-3.91139 152.73868,151.93842 4.6852589 0 1 0.1653,-3.90947 152.73868,151.93842 4.6852589 0 1 0.2714,-3.90434 A 152.73868,151.93842 4.6852589 0 0 964.73774,457.81221 152.73868,151.93842 4.6852589 0 0 800.102,596.76731 Z"
       id="path536-9-24" />
    <path
       style="fill:#00ed43;fill-opacity:1;stroke:none;stroke-width:1.6567"
       d="m 790.1849,264.99133 a 29.245128,29.399163 0 0 0 -29.2448,29.40042 29.245128,29.399163 0 0 0 29.2448,29.39889 29.245128,29.399163 0 0 0 29.2449,-29.39889 29.245128,29.399163 0 0 0 -29.2449,-29.40042 z"
       id="path6141" />
    <path
       style="fill:#00ed43;fill-opacity:1;stroke:none;stroke-width:3.44285"
       d="m 880.1563,625.81317 a 61.095473,60.775368 4.6852589 0 1 65.85554,-55.58058 61.095473,60.775368 4.6852589 0 1 55.92656,65.56207 61.095473,60.775368 4.6852589 0 1 -65.85549,55.5806 61.095473,60.775368 4.6852589 0 1 -55.92654,-65.56203 z"
       id="path6139" />
    <path
       style="fill:#00ed43;fill-opacity:1;stroke:none;stroke-width:3.44285"
       d="m 790.67688,616.75617 a 305.47738,303.87686 4.6852589 0 0 279.63552,327.81381 305.47738,303.87686 4.6852589 0 0 329.2752,-277.90993 152.73868,151.93842 4.6852589 0 1 -1.3526,11.28381 152.73868,151.93842 4.6852589 0 1 -2.1969,11.14871 152.73868,151.93842 4.6852589 0 1 -3.0297,10.95416 152.73868,151.93842 4.6852589 0 1 -3.8414,10.69523 152.73868,151.93842 4.6852589 0 1 -4.6364,10.38146 152.73868,151.93842 4.6852589 0 1 -5.4037,10.00625 152.73868,151.93842 4.6852589 0 1 -6.1385,9.57462 152.73868,151.93842 4.6852589 0 1 -6.8432,9.09419 152.73868,151.93842 4.6852589 0 1 -7.5058,8.5581 152.73868,151.93842 4.6852589 0 1 -8.1295,7.97421 152.73868,151.93842 4.6852589 0 1 -8.7055,7.34707 152.73868,151.93842 4.6852589 0 1 -9.2334,6.67992 152.73868,151.93842 4.6852589 0 1 -9.711,5.97282 152.73868,151.93842 4.6852589 0 1 -10.1353,5.23558 152.73868,151.93842 4.6852589 0 1 -10.4966,4.46522 152.73868,151.93842 4.6852589 0 1 -10.8052,3.67418 152.73868,151.93842 4.6852589 0 1 -11.0525,2.85996 152.73868,151.93842 4.6852589 0 1 -11.2375,2.02835 152.73868,151.93842 4.6852589 0 1 -11.356,1.19013 152.73868,151.93842 4.6852589 0 1 -11.4161,0.34067 152.73868,151.93842 4.6852589 0 1 -11.4129,-0.5098 152.73868,151.93842 4.6852589 0 1 -3.9135,-0.36882 152.73868,151.93842 4.6852589 0 1 -3.9055,-0.47007 152.73868,151.93842 4.6852589 0 1 -3.8907,-0.57077 152.73868,151.93842 4.6852589 0 1 -3.8763,-0.67072 152.73868,151.93842 4.6852589 0 1 -3.8554,-0.76974 152.73868,151.93842 4.6852589 0 1 -3.8379,-0.86869 152.73868,151.93842 4.6852589 0 1 -3.811,-0.9646 152.73868,151.93842 4.6852589 0 1 -3.7834,-1.06668 152.73868,151.93842 4.6852589 0 1 -3.7574,-1.15841 152.73868,151.93842 4.6852589 0 1 -3.7269,-1.25705 152.73868,151.93842 4.6852589 0 1 -3.6939,-1.34903 152.73868,151.93842 4.6852589 0 1 -3.654,-1.44664 152.73868,151.93842 4.6852589 0 1 -3.6184,-1.53793 152.73868,151.93842 4.6852589 0 1 -3.5757,-1.63235 152.73868,151.93842 4.6852589 0 1 -3.5337,-1.72018 152.73868,151.93842 4.6852589 0 1 -3.4883,-1.8111 152.73868,151.93842 4.6852589 0 1 -3.4394,-1.90162 152.73868,151.93842 4.6852589 0 1 -3.3884,-1.98558 152.73868,151.93842 4.6852589 0 1 -3.3368,-2.07297 152.73868,151.93842 4.6852589 0 1 -3.2822,-2.15959 152.73868,151.93842 4.6852589 0 1 -3.2251,-2.24005 152.73868,151.93842 4.6852589 0 1 -3.1672,-2.32371 152.73868,151.93842 4.6852589 0 1 -3.1038,-2.40653 152.73868,151.93842 4.6852589 0 1 -3.0437,-2.48048 152.73868,151.93842 4.6852589 0 1 -2.9767,-2.56025 152.73868,151.93842 4.6852589 0 1 -2.9078,-2.63318 152.73868,151.93842 4.6852589 0 1 -2.841,-2.70965 152.73868,151.93842 4.6852589 0 1 -2.7691,-2.77942 152.73868,151.93842 4.6852589 0 1 -2.6964,-2.85219 152.73868,151.93842 4.6852589 0 1 -2.6245,-2.91881 152.73868,151.93842 4.6852589 0 1 -2.5467,-2.98157 152.73868,151.93842 4.6852589 0 1 -2.4642,-3.0511 152.73868,151.93842 4.6852589 0 1 -2.3898,-3.111 152.73868,151.93842 4.6852589 0 1 -2.3062,-3.16991 152.73868,151.93842 4.6852589 0 1 -2.2252,-3.22966 152.73868,151.93842 4.6852589 0 1 -2.1386,-3.28224 152.73868,151.93842 4.6852589 0 1 -2.0547,-3.33845 152.73868,151.93842 4.6852589 0 1 -1.9679,-3.39132 152.73868,151.93842 4.6852589 0 1 -1.8789,-3.43729 152.73868,151.93842 4.6852589 0 1 -1.7888,-3.48714 152.73868,151.93842 4.6852589 0 1 -1.6963,-3.53015 152.73868,151.93842 4.6852589 0 1 -1.608,-3.57275 152.73868,151.93842 4.6852589 0 1 -1.5129,-3.6123 152.73868,151.93842 4.6852589 0 1 -1.421,-3.6489 152.73868,151.93842 4.6852589 0 1 -1.3231,-3.68502 152.73868,151.93842 4.6852589 0 1 -1.2284,-3.71834 152.73868,151.93842 4.6852589 0 1 -1.1341,-3.74819 152.73868,151.93842 4.6852589 0 1 -1.0339,-3.77468 152.73868,151.93842 4.6852589 0 1 -0.9365,-3.80152 152.73868,151.93842 4.6852589 0 1 -0.8396,-3.82514 152.73868,151.93842 4.6852589 0 1 -0.7369,-3.84168 152.73868,151.93842 4.6852589 0 1 -0.64,-3.86223 152.73868,151.93842 4.6852589 0 1 -0.5409,-3.87626 152.73868,151.93842 4.6852589 0 1 -0.4384,-3.88679 152.73868,151.93842 4.6852589 0 1 -0.3362,-3.90018 152.73868,151.93842 4.6852589 0 1 -0.237,-3.90487 152.73868,151.93842 4.6852589 0 1 -0.1359,-3.90919 152.73868,151.93842 4.6852589 0 1 -0.034,-3.91344 152.73868,151.93842 4.6852589 0 1 0.067,-3.91126 152.73868,151.93842 4.6852589 0 1 0.1654,-3.90985 152.73868,151.93842 4.6852589 0 1 0.2712,-3.904 A 152.73868,151.93842 4.6852589 0 0 955.31561,477.80474 152.73868,151.93842 4.6852589 0 0 790.67987,616.75973 Z"
       id="path536-9-2-1" />
    <rect
       style="fill:#bababa;fill-opacity:1;stroke-width:0"
       id="rect411-6-5"
       width="407.48346"
       height="44.927662"
       x="736.38538"
       y="167.68799"
       ry="22.463831"
       rx="46.544777" />
    <rect
       style="fill:#e0e0e0;fill-opacity:1;stroke-width:0"
       id="rect411-6"
       width="407.48346"
       height="44.927662"
       x="734.17078"
       y="170.96759"
       ry="22.463831"
       rx="46.544777" />
    <circle
       style="fill:#009e2d;fill-opacity:1;stroke:none;stroke-width:0"
       id="path27298"
       cx="791.37518"
       cy="33.558018"
       r="20" />
    <circle
       style="fill:#00ed43;fill-opacity:1;stroke:none;stroke-width:0"
       id="path27298-5"
       cx="790.04291"
       cy="35.189762"
       r="20" />
    <circle
       style="fill:#009e2d;fill-opacity:1;stroke:none;stroke-width:0"
       id="path27298-9"
       cx="-862.36658"
       cy="-24.29977"
       r="20"
       transform="scale(-1)" />
    <circle
       style="fill:#d11919;fill-opacity:1;stroke:none;stroke-width:0"
       id="path27298-5-7"
       cx="-863.69885"
       cy="-22.668026"
       r="20"
       transform="scale(-1)" />
    <text
       xml:space="preserve"
       transform="matrix(0.02733824,0,0,0.02733824,779.43613,19.960838)"
       id="text31757"
       style="font-style:normal;font-variant:normal;font-weight:normal;font-stretch:normal;font-size:609.536px;font-family:Mistral;-inkscape-font-specification:'Mistral, Normal';font-variant-ligatures:normal;font-variant-caps:normal;font-variant-numeric:normal;font-variant-east-asian:normal;white-space:pre;shape-inside:url(#rect31759);display:inline;fill:#009e2d;fill-opacity:1;stroke:none;stroke-width:0"><tspan
         x="-213.24414"
         y="756.18867"
         id="tspan3623">COOK</tspan></text>
    <text
       xml:space="preserve"
       transform="matrix(0.02733824,0,0,0.02733824,780.01885,19.624975)"
       id="text31757-5"
       style="font-style:normal;font-variant:normal;font-weight:normal;font-stretch:normal;font-size:609.536px;font-family:Mistral;-inkscape-font-specification:'Mistral, Normal';font-variant-ligatures:normal;font-variant-caps:normal;font-variant-numeric:normal;font-variant-east-asian:normal;white-space:pre;shape-inside:url(#rect31759-3);display:inline;fill:#d11919;fill-opacity:1;stroke:none;stroke-width:0"><tspan
         x="-213.24414"
         y="756.18867"
         id="tspan3625">COOK</tspan></text>
    <text
       xml:space="preserve"
       transform="matrix(0.21084397,0,0,0.21084397,808.99828,4.3006427)"
       id="text35578"
       style="font-style:normal;font-variant:normal;font-weight:normal;font-stretch:normal;font-size:75.6068px;font-family:Mistral;-inkscape-font-specification:'Mistral, Normal';font-variant-ligatures:normal;font-variant-caps:normal;font-variant-numeric:normal;font-variant-east-asian:normal;white-space:pre;shape-inside:url(#rect35580);display:inline;fill:#009e2d;fill-opacity:1;stroke:none;stroke-width:0"><tspan
         x="175.21875"
         y="115.0192"
         id="tspan3627">CLIENT</tspan></text>
    <text
       xml:space="preserve"
       transform="matrix(0.21084397,0,0,0.21084397,809.56917,3.7305117)"
       id="text35578-9"
       style="font-style:normal;font-variant:normal;font-weight:normal;font-stretch:normal;font-size:75.6068px;font-family:Mistral;-inkscape-font-specification:'Mistral, Normal';font-variant-ligatures:normal;font-variant-caps:normal;font-variant-numeric:normal;font-variant-east-asian:normal;white-space:pre;shape-inside:url(#rect35580-1);display:inline;fill:#00ed43;fill-opacity:1;stroke:none;stroke-width:0"><tspan
         x="175.21875"
         y="115.0192"
         id="tspan3629">CLIENT</tspan></text>
    <path
       id="path536-2-7"
       style="fill:#009e2d;fill-opacity:1;stroke:none;stroke-width:1.02647"
       d="m 748.21488,-121.42305 a 90.838232,90.838232 0 0 0 -6.55177,-128.29758 45.419116,45.419116 0 0 1 2.43484,2.36909 45.419116,45.419116 0 0 1 2.25039,2.54397 45.419116,45.419116 0 0 1 2.0539,2.70556 45.419116,45.419116 0 0 1 1.84595,2.85046 45.419116,45.419116 0 0 1 1.628,2.98124 45.419116,45.419116 0 0 1 1.40039,3.09455 45.419116,45.419116 0 0 1 1.16528,3.18968 45.419116,45.419116 0 0 1 0.9244,3.26902 45.419116,45.419116 0 0 1 0.67714,3.32827 45.419116,45.419116 0 0 1 0.42597,3.36967 45.419116,45.419116 0 0 1 0.17321,3.39189 45.419116,45.419116 0 0 1 -0.0805,3.39552 45.419116,45.419116 0 0 1 -0.33458,3.37996 45.419116,45.419116 0 0 1 -0.58623,3.34624 45.419116,45.419116 0 0 1 -0.83432,3.29176 45.419116,45.419116 0 0 1 -1.07787,3.22113 45.419116,45.419116 0 0 1 -1.31577,3.13157 45.419116,45.419116 0 0 1 -1.5466,3.02438 45.419116,45.419116 0 0 1 -1.76697,2.90001 45.419116,45.419116 0 0 1 -1.97951,2.76 45.419116,45.419116 0 0 1 -2.18087,2.6048 45.419116,45.419116 0 0 1 -0.79405,0.85783 45.419116,45.419116 0 0 1 -0.81672,0.83738 45.419116,45.419116 0 0 1 -0.83772,0.81594 45.419116,45.419116 0 0 1 -0.85883,0.79429 45.419116,45.419116 0 0 1 -0.87857,0.77141 45.419116,45.419116 0 0 1 -0.89908,0.74913 45.419116,45.419116 0 0 1 -0.91683,0.72553 45.419116,45.419116 0 0 1 -0.93604,0.70053 45.419116,45.419116 0 0 1 -0.95319,0.6775 45.419116,45.419116 0 0 1 -0.97113,0.65244 45.419116,45.419116 0 0 1 -0.98689,0.6281 45.419116,45.419116 0 0 1 -1.00295,0.601 45.419116,45.419116 0 0 1 -1.0182,0.57579 45.419116,45.419116 0 0 1 -1.03264,0.54908 45.419116,45.419116 0 0 1 -1.04617,0.52274 45.419116,45.419116 0 0 1 -1.05952,0.4955 45.419116,45.419116 0 0 1 -1.07225,0.46759 45.419116,45.419116 0 0 1 -1.08303,0.44006 45.419116,45.419116 0 0 1 -1.09434,0.41212 45.419116,45.419116 0 0 1 -1.10515,0.3835 45.419116,45.419116 0 0 1 -1.1139,0.35531 45.419116,45.419116 0 0 1 -1.12302,0.32755 45.419116,45.419116 0 0 1 -1.13153,0.2964 45.419116,45.419116 0 0 1 -1.13827,0.26877 45.419116,45.419116 0 0 1 -1.1451,0.23856 45.419116,45.419116 0 0 1 -1.14993,0.20903 45.419116,45.419116 0 0 1 -1.1561,0.17938 45.419116,45.419116 0 0 1 -1.15958,0.14988 45.419116,45.419116 0 0 1 -1.1638,0.11927 45.419116,45.419116 0 0 1 -1.16666,0.0902 45.419116,45.419116 0 0 1 -1.16751,0.0602 45.419116,45.419116 0 0 1 -1.16912,0.0284 45.419116,45.419116 0 0 1 -1.1699,-8e-5 45.419116,45.419116 0 0 1 -1.16881,-0.0307 45.419116,45.419116 0 0 1 -1.16837,-0.0606 45.419116,45.419116 0 0 1 -1.16525,-0.0907 45.419116,45.419116 0 0 1 -1.16346,-0.12074 45.419116,45.419116 0 0 1 -1.16033,-0.1508 45.419116,45.419116 0 0 1 -1.15519,-0.1803 45.419116,45.419116 0 0 1 -1.15076,-0.21045 45.419116,45.419116 0 0 1 -1.14429,-0.24004 45.419116,45.419116 0 0 1 -1.13846,-0.2689 45.419116,45.419116 0 0 1 -1.13063,-0.29857 45.419116,45.419116 0 0 1 -1.1228,-0.32685 45.419116,45.419116 0 0 1 -1.11367,-0.3566 45.419116,45.419116 0 0 1 -1.10448,-0.38496 45.419116,45.419116 0 0 1 -1.09461,-0.41273 45.419116,45.419116 0 0 1 -1.08278,-0.44125 45.419116,45.419116 0 0 1 -1.07154,-0.46909 45.419116,45.419116 0 0 1 -1.05969,-0.49629 45.419116,45.419116 0 0 1 -1.04509,-0.5236 45.419116,45.419116 0 0 1 -1.03248,-0.55017 45.419116,45.419116 0 0 1 -1.01788,-0.5762 45.419116,45.419116 0 0 1 -1.00191,-0.60225 45.419116,45.419116 0 0 1 -0.98666,-0.62898 45.419116,45.419116 0 0 1 -0.97,-0.65302 45.419116,45.419116 0 0 1 -0.95258,-0.6779 45.419116,45.419116 0 0 1 -0.9353,-0.70269 45.419116,45.419116 0 0 1 -0.91647,-0.72633 45.419116,45.419116 0 0 1 -0.89838,-0.74916 45.419116,45.419116 0 0 1 -0.87803,-0.77311 45.419116,45.419116 0 0 0 -64.14872,3.27588 45.419116,45.419116 0 0 0 3.2765,64.1481 90.838232,90.838232 0 0 0 128.29699,-6.55108 z" />
    <path
       id="path536-20"
       style="fill:#00ed43;fill-opacity:1;stroke:none;stroke-width:1.02647"
       d="m 751.40762,-113.97444 a 90.838232,90.838232 0 0 0 -6.55177,-128.2976 45.419116,45.419116 0 0 1 2.43484,2.36909 45.419116,45.419116 0 0 1 2.2504,2.54397 45.419116,45.419116 0 0 1 2.0539,2.70556 45.419116,45.419116 0 0 1 1.84591,2.85047 45.419116,45.419116 0 0 1 1.628,2.98123 45.419116,45.419116 0 0 1 1.40041,3.09457 45.419116,45.419116 0 0 1 1.16529,3.18965 45.419116,45.419116 0 0 1 0.9244,3.26904 45.419116,45.419116 0 0 1 0.67716,3.32825 45.419116,45.419116 0 0 1 0.42598,3.36967 45.419116,45.419116 0 0 1 0.17322,3.39188 45.419116,45.419116 0 0 1 -0.0805,3.39555 45.419116,45.419116 0 0 1 -0.33457,3.37991 45.419116,45.419116 0 0 1 -0.58626,3.34627 45.419116,45.419116 0 0 1 -0.83429,3.29177 45.419116,45.419116 0 0 1 -1.07789,3.22113 45.419116,45.419116 0 0 1 -1.31575,3.13156 45.419116,45.419116 0 0 1 -1.5466,3.02438 45.419116,45.419116 0 0 1 -1.76698,2.90003 45.419116,45.419116 0 0 1 -1.97953,2.75999 45.419116,45.419116 0 0 1 -2.18083,2.60479 45.419116,45.419116 0 0 1 -0.79406,0.85785 45.419116,45.419116 0 0 1 -0.81673,0.83738 45.419116,45.419116 0 0 1 -0.83771,0.81591 45.419116,45.419116 0 0 1 -0.85885,0.79431 45.419116,45.419116 0 0 1 -0.87856,0.77141 45.419116,45.419116 0 0 1 -0.89909,0.74914 45.419116,45.419116 0 0 1 -0.91681,0.72551 45.419116,45.419116 0 0 1 -0.93606,0.70054 45.419116,45.419116 0 0 1 -0.95318,0.6775 45.419116,45.419116 0 0 1 -0.97111,0.65244 45.419116,45.419116 0 0 1 -0.98692,0.62809 45.419116,45.419116 0 0 1 -1.00294,0.60101 45.419116,45.419116 0 0 1 -1.0182,0.57579 45.419116,45.419116 0 0 1 -1.03263,0.54908 45.419116,45.419116 0 0 1 -1.04619,0.52275 45.419116,45.419116 0 0 1 -1.0595,0.49549 45.419116,45.419116 0 0 1 -1.07227,0.46758 45.419116,45.419116 0 0 1 -1.08301,0.44006 45.419116,45.419116 0 0 1 -1.09437,0.41212 45.419116,45.419116 0 0 1 -1.10513,0.38349 45.419116,45.419116 0 0 1 -1.11389,0.35532 45.419116,45.419116 0 0 1 -1.12304,0.32756 45.419116,45.419116 0 0 1 -1.13152,0.29639 45.419116,45.419116 0 0 1 -1.13826,0.26877 45.419116,45.419116 0 0 1 -1.14514,0.23856 45.419116,45.419116 0 0 1 -1.1499,0.20903 45.419116,45.419116 0 0 1 -1.15609,0.17937 45.419116,45.419116 0 0 1 -1.15958,0.14989 45.419116,45.419116 0 0 1 -1.16379,0.11926 45.419116,45.419116 0 0 1 -1.16667,0.0902 45.419116,45.419116 0 0 1 -1.16751,0.0603 45.419116,45.419116 0 0 1 -1.16912,0.0284 45.419116,45.419116 0 0 1 -1.16993,-7e-5 45.419116,45.419116 0 0 1 -1.1688,-0.0307 45.419116,45.419116 0 0 1 -1.16836,-0.0606 45.419116,45.419116 0 0 1 -1.16525,-0.0907 45.419116,45.419116 0 0 1 -1.16345,-0.12075 45.419116,45.419116 0 0 1 -1.16035,-0.15079 45.419116,45.419116 0 0 1 -1.15518,-0.18029 45.419116,45.419116 0 0 1 -1.15075,-0.21045 45.419116,45.419116 0 0 1 -1.14428,-0.24006 45.419116,45.419116 0 0 1 -1.13845,-0.2689 45.419116,45.419116 0 0 1 -1.13065,-0.29855 45.419116,45.419116 0 0 1 -1.12281,-0.32686 45.419116,45.419116 0 0 1 -1.11369,-0.35659 45.419116,45.419116 0 0 1 -1.10448,-0.38498 45.419116,45.419116 0 0 1 -1.09462,-0.41274 45.419116,45.419116 0 0 1 -1.08276,-0.44124 45.419116,45.419116 0 0 1 -1.07154,-0.46909 45.419116,45.419116 0 0 1 -1.05966,-0.49628 45.419116,45.419116 0 0 1 -1.04509,-0.52359 45.419116,45.419116 0 0 1 -1.0325,-0.55019 45.419116,45.419116 0 0 1 -1.01788,-0.57619 45.419116,45.419116 0 0 1 -1.0019,-0.60227 45.419116,45.419116 0 0 1 -0.98669,-0.62897 45.419116,45.419116 0 0 1 -0.97001,-0.65301 45.419116,45.419116 0 0 1 -0.95257,-0.67789 45.419116,45.419116 0 0 1 -0.93529,-0.70269 45.419116,45.419116 0 0 1 -0.91646,-0.72633 45.419116,45.419116 0 0 1 -0.89839,-0.74917 45.419116,45.419116 0 0 1 -0.87802,-0.77313 45.419116,45.419116 0 0 0 -64.14871,3.27591 45.419116,45.419116 0 0 0 3.27648,64.1481 90.838232,90.838232 0 0 0 128.29699,-6.55109 z" />
    <rect
       style="fill:#bababa;fill-opacity:1;stroke-width:0"
       id="rect411-7-3"
       width="148.05063"
       height="44.927662"
       x="749.43005"
       y="-83.035332"
       ry="22.463831" />
    <rect
       style="fill:#e0e0e0;fill-opacity:1;stroke-width:0"
       id="rect411-62"
       width="148.05063"
       height="44.927662"
       x="752.50983"
       y="-85.791405"
       ry="22.463831" />
    <rect
       style="fill:#e0e0e0;fill-opacity:1;stroke-width:0"
       id="rect334"
       width="199.47762"
       height="168.44775"
       x="712.48975"
       y="-438.20187"
       ry="22.463831" />
    <rect
       style="fill:#525252;fill-opacity:1;stroke-width:0"
       id="rect334-0"
       width="169.17757"
       height="74.935516"
       x="733.51746"
       y="-629.43939"
       ry="21.555141" />
    <rect
       style="fill:#e0e0e0;fill-opacity:1;stroke-width:0"
       id="rect334-3"
       width="199.47762"
       height="356.51703"
       x="1124.3458"
       y="-462.46927"
       ry="19.333946" />
    <rect
       style="fill:#525252;fill-opacity:1;stroke-width:0"
       id="rect397"
       width="14.406723"
       height="116.73135"
       x="299.12781"
       y="-506.17203"
       ry="4.9869404" />
    <rect
       style="fill:#525252;fill-opacity:1;stroke-width:0"
       id="rect397-2"
       width="14.406723"
       height="116.73135"
       x="596.83789"
       y="-1.7879986"
       ry="4.9869404"
       transform="rotate(-59.209496)" />
    <rect
       style="fill:#525252;fill-opacity:1;stroke-width:0"
       id="rect397-2-5"
       width="14.406723"
       height="116.73135"
       x="184.3576"
       y="-694.24603"
       ry="4.9869404"
       transform="matrix(-0.5119005,-0.85904475,-0.85904475,0.5119005,0,0)" />
    <rect
       style="fill:#525252;fill-opacity:1;stroke-width:0"
       id="rect397-9"
       width="14.406723"
       height="205.01944"
       x="-403.82825"
       y="-508.49567"
       ry="8.7587414"
       transform="rotate(90)" />
    <rect
       style="fill:#525252;fill-opacity:1;stroke-width:0"
       id="rect397-0"
       width="14.406723"
       height="116.73135"
       x="493.95975"
       y="-506.17188"
       ry="4.9869404" />
    <rect
       style="fill:#525252;fill-opacity:1;stroke-width:0"
       id="rect397-9-8"
       width="14.406723"
       height="221.27316"
       x="-542.18884"
       y="-513.19727"
       ry="9.453125"
       transform="rotate(90)" />
    <rect
       style="fill:#525252;fill-opacity:1;stroke-width:0"
       id="rect397-9-8-1-5-0-1"
       width="10.201278"
       height="39.358418"
       x="538.64136"
       y="-544.43463"
       ry="5.904098" />
    <rect
       style="fill:#525252;fill-opacity:1;stroke-width:0"
       id="rect397-9-8-1-5-0-1-1"
       width="10.201278"
       height="39.358418"
       x="-530.34204"
       y="-563.63934"
       ry="5.904098"
       transform="rotate(90)" />
    <rect
       style="fill:#00ed43;fill-opacity:1;stroke-width:0"
       id="rect13087-4"
       width="239.91653"
       height="147.68584"
       x="-37.328796"
       y="-481.53967"
       rx="29.328562"
       ry="25.043219" />
    <rect
       style="fill:#525252;fill-opacity:1;stroke-width:0"
       id="rect13087"
       width="214.71245"
       height="132.17091"
       x="-24.9079"
       y="-473.21262"
       rx="26.247492"
       ry="22.412338" />
    <rect
       style="fill:#00ed43;fill-opacity:1;stroke-width:0"
       id="rect13896"
       width="134.55614"
       height="4.5713315"
       x="-257.71103"
       y="-391.50647"
       rx="3.0777504"
       ry="4.5713315"
       transform="rotate(29.474949)" />
    <rect
       style="fill:#00ed43;fill-opacity:1;stroke-width:0"
       id="rect13896-8"
       width="134.55614"
       height="4.5713315"
       x="-401.62231"
       y="-310.57458"
       rx="3.0777504"
       ry="4.5713315"
       transform="matrix(-0.87057091,0.49204297,0.49204297,0.87057091,0,0)" />
    <rect
       style="fill:#009e2d;fill-opacity:1;stroke-width:0"
       id="rect16975"
       width="118.94776"
       height="179.52985"
       x="-497.66052"
       y="-772.78674"
       rx="10.096408"
       ry="7.5265684" />
    <rect
       style="fill:#009e2d;fill-opacity:1;stroke-width:0"
       id="rect16975-5"
       width="64.586365"
       height="105.75803"
       x="-768.11707"
       y="-106.89322"
       rx="5.4821568"
       ry="4.4337745"
       transform="matrix(0.4974621,0.86748571,-0.00285989,0.99999591,0,0)" />
    <rect
       style="fill:#009e2d;fill-opacity:1;stroke-width:0"
       id="rect16975-5-6"
       width="64.586365"
       height="105.75803"
       x="-767.69733"
       y="-33.861111"
       rx="5.4821568"
       ry="4.4337745"
       transform="matrix(0.4974621,0.86748571,-0.00285989,0.99999591,0,0)" />
    <rect
       style="fill:#bababa;fill-opacity:1;stroke-width:0"
       id="rect16975-9"
       width="100.59162"
       height="164.01492"
       x="-488.5643"
       y="-765.10217"
       rx="8.5383205"
       ry="6.8761239" />
    <rect
       style="fill:#009e2d;fill-opacity:1;stroke:none;stroke-width:8.38258;stroke-dasharray:none;stroke-opacity:1"
       id="rect34493"
       width="78.100998"
       height="9.011631"
       x="-484.46017"
       y="-689.98169"
       rx="0"
       ry="4.5058155" />
    <path
       sodipodi:type="star"
       style="fill:#009e2d;fill-opacity:1;stroke:none;stroke-width:6.54;stroke-dasharray:none;stroke-opacity:1"
       id="path34563"
       inkscape:flatsided="true"
       sodipodi:sides="3"
       sodipodi:cx="746.84735"
       sodipodi:cy="322.33401"
       sodipodi:r1="54.354286"
       sodipodi:r2="27.177143"
       sodipodi:arg1="0.045423279"
       sodipodi:arg2="1.0926208"
       inkscape:rounded="0"
       inkscape:randomized="0"
       d="m 801.14557,324.80212 -83.58477,43.32148 4.27488,-94.04728 z"
       transform="matrix(0.26421081,-0.01403516,0.01403516,0.26421081,-608.27363,-759.89204)"
       inkscape:transform-center-x="-3.5475807"
       inkscape:transform-center-y="0.054993619" />
    <path
       id="path354"
       style="fill:#525252;fill-opacity:1;stroke-width:6.54"
       d="m -276.46111,-365.7013 c -27.26663,0.0175 -53.34372,11.16834 -72.19301,30.87046 l 14.61823,7.83519 c 15.58336,-14.73772 36.21406,-22.95605 57.66263,-22.97018 46.39195,-2e-5 84.00006,37.60809 84.00004,84.00004 2e-5,46.39195 -37.60809,84.00006 -84.00004,84.00004 -36.70342,0.65621 -34.02648,16.2027 -0.0879,16.26413 55.22835,6e-5 99.99987,-44.77124 100.0001,-99.99959 5e-5,-55.22855 -44.77155,-100.00015 -100.0001,-100.00009 z"
       sodipodi:nodetypes="ccccscccc" />
    <rect
       style="fill:#525252;fill-opacity:1;stroke-width:6.36033"
       id="rect3686"
       width="79.791039"
       height="17.731342"
       x="-427.57303"
       y="-232.95457"
       ry="8.8656712"
       transform="rotate(15.618325)" />
    <rect
       style="fill:#525252;fill-opacity:1;stroke-width:6.36033"
       id="rect3686-5"
       width="79.791039"
       height="17.731342"
       x="234.83461"
       y="-417.05707"
       ry="8.8656712"
       transform="rotate(-77.059924)" />
    <rect
       style="fill:#525252;fill-opacity:1;stroke-width:3.08525"
       id="rect354-9-4"
       width="83.854477"
       height="16.992535"
       x="-551.41534"
       y="-252.97687"
       ry="8.4962673"
       rx="0" />
    <rect
       style="fill:#525252;fill-opacity:1;stroke-width:3.08525"
       id="rect354-9-4-8"
       width="83.854477"
       height="16.992535"
       x="-551.41541"
       y="-227.97687"
       ry="8.4962673"
       rx="0" />
    <rect
       style="fill:#525252;fill-opacity:1;stroke-width:3.08525"
       id="rect354-9-4-3"
       width="83.854477"
       height="16.992535"
       x="-551.41541"
       y="-202.97687"
       ry="8.4962673"
       rx="0" />
  </g>
</svg>
