<?xml version="1.0" encoding="UTF-8" standalone="no"?>
<!-- Created with Inkscape (http://www.inkscape.org/) -->

<svg
   width="271.71524mm"
   height="155.01311mm"
   viewBox="0 0 271.71523 155.01309"
   version="1.1"
   id="svg5"
   inkscape:export-filename="box.png"
   inkscape:export-xdpi="96"
   inkscape:export-ydpi="96"
   inkscape:version="1.2.1 (9c6d41e410, 2022-07-14)"
   sodipodi:docname="message_icon.svg"
   xmlns:inkscape="http://www.inkscape.org/namespaces/inkscape"
   xmlns:sodipodi="http://sodipodi.sourceforge.net/DTD/sodipodi-0.dtd"
   xmlns="http://www.w3.org/2000/svg"
   xmlns:svg="http://www.w3.org/2000/svg">
  <sodipodi:namedview
     id="namedview7"
     pagecolor="#ffffff"
     bordercolor="#000000"
     borderopacity="0.25"
     inkscape:showpageshadow="2"
     inkscape:pageopacity="0.0"
     inkscape:pagecheckerboard="0"
     inkscape:deskcolor="#d1d1d1"
     inkscape:document-units="mm"
     showgrid="false"
     inkscape:zoom="0.71624578"
     inkscape:cx="115.88201"
     inkscape:cy="323.91116"
     inkscape:window-width="1920"
     inkscape:window-height="1017"
     inkscape:window-x="-8"
     inkscape:window-y="-8"
     inkscape:window-maximized="1"
     inkscape:current-layer="layer1" />
  <defs
     id="defs2" />
  <g
     inkscape:label="Layer 1"
     inkscape:groupmode="layer"
     id="layer1"
     transform="translate(-291.9241,544.43463)">
    <path
       id="rect397"
       style="fill:#525252;fill-opacity:1;stroke-width:0"
       d="M 543.7418 -544.43463 C 540.91605 -544.43463 538.64134 -541.80146 538.64134 -538.5306 L 538.64134 -530.34195 L 530.18501 -530.34195 C 526.91414 -530.34195 524.28098 -528.06724 524.28098 -525.24149 C 524.28098 -522.41574 526.91414 -520.14051 530.18501 -520.14051 L 538.64134 -520.14051 L 538.64134 -510.98034 C 538.64134 -507.70947 540.91605 -505.07631 543.7418 -505.07631 C 546.56756 -505.07631 548.84278 -507.70947 548.84278 -510.98034 L 548.84278 -520.14051 L 557.73527 -520.14051 C 561.00613 -520.14051 563.6393 -522.41574 563.6393 -525.24149 C 563.6393 -528.06724 561.00613 -530.34195 557.73527 -530.34195 L 548.84278 -530.34195 L 548.84278 -538.5306 C 548.84278 -541.80146 546.56756 -544.43463 543.7418 -544.43463 z M 301.37727 -542.18877 C 296.14024 -542.18877 291.9241 -538.97625 291.9241 -534.98559 C 291.9241 -530.99494 296.14024 -527.7819 301.37727 -527.7819 L 503.74425 -527.7819 C 508.98127 -527.7819 513.19742 -530.99494 513.19742 -534.98559 C 513.19742 -538.97625 508.98127 -542.18877 503.74425 -542.18877 L 301.37727 -542.18877 z M 492.70926 -524.28289 C 491.90611 -524.2501 491.09862 -524.02153 490.35695 -523.57957 L 402.89149 -471.45924 L 315.64462 -523.44883 C 313.27128 -524.86309 310.22208 -524.09101 308.80782 -521.71767 L 306.53871 -517.90963 C 305.12445 -515.5363 305.89654 -512.4871 308.26987 -511.07284 L 399.979 -456.42346 C 401.13751 -455.73312 402.45636 -455.56738 403.66818 -455.85089 C 404.47185 -455.88345 405.2799 -456.11196 406.02205 -456.55421 L 497.73169 -511.20358 C 500.10503 -512.61784 500.87711 -515.66704 499.46285 -518.04038 L 497.19374 -521.84841 C 496.22144 -523.48008 494.4762 -524.35502 492.70926 -524.28289 z M 304.11457 -506.17185 C 301.35181 -506.17185 299.12779 -503.94784 299.12779 -501.18507 L 299.12779 -394.42777 C 299.12779 -391.665 301.35181 -389.44047 304.11457 -389.44047 L 308.54737 -389.44047 C 309.06092 -389.44047 309.55568 -389.51826 310.02119 -389.66113 C 310.7291 -389.51026 311.46815 -389.42135 312.235 -389.42135 L 499.73674 -389.42135 C 499.89256 -389.42135 500.04443 -389.43393 500.19821 -389.44047 L 503.37941 -389.44047 C 506.14217 -389.44047 508.3667 -391.66449 508.3667 -394.42725 L 508.3667 -395.43287 C 508.44494 -395.82138 508.49589 -396.21775 508.49589 -396.62505 C 508.49589 -397.03235 508.44494 -397.42872 508.3667 -397.81722 L 508.3667 -501.18507 C 508.3667 -503.94784 506.14217 -506.17185 503.37941 -506.17185 L 498.94661 -506.17185 C 496.18384 -506.17185 493.95983 -503.94784 493.95983 -501.18507 L 493.95983 -403.82823 L 313.53467 -403.82823 L 313.53467 -501.18507 C 313.53467 -503.94784 311.31014 -506.17185 308.54737 -506.17185 L 304.11457 -506.17185 z " />
  </g>
</svg>
