<?xml version="1.0" encoding="UTF-8" standalone="no"?>
<!-- Created with Inkscape (http://www.inkscape.org/) -->

<svg
   width="239.91655mm"
   height="147.68584mm"
   viewBox="0 0 239.91655 147.68582"
   version="1.1"
   id="svg5"
   inkscape:export-filename="message_icon.svg"
   inkscape:export-xdpi="96"
   inkscape:export-ydpi="96"
   inkscape:version="1.2.1 (9c6d41e410, 2022-07-14)"
   sodipodi:docname="message_icon_2.svg"
   xmlns:inkscape="http://www.inkscape.org/namespaces/inkscape"
   xmlns:sodipodi="http://sodipodi.sourceforge.net/DTD/sodipodi-0.dtd"
   xmlns="http://www.w3.org/2000/svg"
   xmlns:svg="http://www.w3.org/2000/svg">
  <sodipodi:namedview
     id="namedview7"
     pagecolor="#ffffff"
     bordercolor="#000000"
     borderopacity="0.25"
     inkscape:showpageshadow="2"
     inkscape:pageopacity="0.0"
     inkscape:pagecheckerboard="0"
     inkscape:deskcolor="#d1d1d1"
     inkscape:document-units="mm"
     showgrid="false"
     inkscape:zoom="0.71624578"
     inkscape:cx="115.88201"
     inkscape:cy="323.91116"
     inkscape:window-width="1920"
     inkscape:window-height="1017"
     inkscape:window-x="-8"
     inkscape:window-y="-8"
     inkscape:window-maximized="1"
     inkscape:current-layer="layer1" />
  <defs
     id="defs2" />
  <g
     inkscape:label="Layer 1"
     inkscape:groupmode="layer"
     id="layer1"
     transform="translate(37.328796,481.53967)">
    <path
       id="rect13087"
       style="fill:#525252;fill-opacity:1;stroke-width:0"
       d="M 1.3396448 -473.21253 C -8.4804455 -473.21253 -17.001506 -468.65046 -21.503405 -461.86594 L 82.245817 -403.22714 C 82.285221 -403.25115 82.323045 -403.27654 82.36364 -403.29948 L 186.28598 -462.03595 C 181.75509 -468.72644 173.2949 -473.21253 163.55713 -473.21253 L 1.3396448 -473.21253 z M 188.42538 -457.99434 L 84.612598 -399.31988 C 84.40048 -399.19999 84.18419 -399.10431 83.967159 -399.02688 C 83.192737 -398.30265 81.766954 -398.24723 80.494503 -398.96642 L -23.604052 -457.8021 C -24.446334 -455.60012 -24.907849 -453.24874 -24.907849 -450.80046 L -24.907849 -363.45385 C -24.907849 -351.03743 -13.201451 -341.04179 1.3396448 -341.04179 L 163.55713 -341.04179 C 178.09823 -341.04179 189.80463 -351.03743 189.80463 -363.45385 L 189.80463 -450.80046 C 189.80463 -453.32022 189.31546 -455.73726 188.42538 -457.99434 z " />
  </g>
</svg>
